<svg width="46" height="46" viewBox="0 0 46 46" fill="none" xmlns="http://www.w3.org/2000/svg">
<rect y="0.000976562" width="46" height="46" rx="6" fill="white" fill-opacity="0.05"/>
<g clip-path="url(#clip0_199_158)">
<path d="M19.8333 21.4176H13.5C13.0801 21.4176 12.6773 21.2508 12.3804 20.9539C12.0835 20.657 11.9167 20.2542 11.9167 19.8343V15.0843C11.9167 14.6644 12.0835 14.2617 12.3804 13.9647C12.6773 13.6678 13.0801 13.501 13.5 13.501H18.25C18.6699 13.501 19.0726 13.6678 19.3696 13.9647C19.6665 14.2617 19.8333 14.6644 19.8333 15.0843V24.5843C19.8333 28.8071 17.7227 31.4449 13.5 32.501" stroke="#FED053" stroke-width="2" stroke-linecap="round" stroke-linejoin="round"/>
<path d="M34.0833 21.4176H27.75C27.3301 21.4176 26.9273 21.2508 26.6304 20.9539C26.3335 20.657 26.1667 20.2542 26.1667 19.8343V15.0843C26.1667 14.6644 26.3335 14.2617 26.6304 13.9647C26.9273 13.6678 27.3301 13.501 27.75 13.501H32.5C32.9199 13.501 33.3226 13.6678 33.6196 13.9647C33.9165 14.2617 34.0833 14.6644 34.0833 15.0843V24.5843C34.0833 28.8071 31.9727 31.4449 27.75 32.501" stroke="#FED053" stroke-width="2" stroke-linecap="round" stroke-linejoin="round"/>
</g>
<defs>
<clipPath id="clip0_199_158">
<rect width="38" height="38" fill="white" transform="translate(4 4.00098)"/>
</clipPath>
</defs>
</svg>
