<svg width="170" height="152" viewBox="0 0 170 152" fill="none" xmlns="http://www.w3.org/2000/svg">
<rect width="8" height="8" rx="4" fill="#353535"/>
<rect y="18" width="8" height="8" rx="4" fill="#353535"/>
<rect y="36" width="8" height="8" rx="4" fill="#353535"/>
<rect y="54" width="8" height="8" rx="4" fill="#353535"/>
<rect y="72" width="8" height="8" rx="4" fill="#353535"/>
<rect y="90" width="8" height="8" rx="4" fill="#353535"/>
<rect y="108" width="8" height="8" rx="4" fill="#353535"/>
<rect y="126" width="8" height="8" rx="4" fill="#353535"/>
<rect y="144" width="8" height="8" rx="4" fill="#353535"/>
<rect x="18" width="8" height="8" rx="4" fill="#353535"/>
<rect x="18" y="18" width="8" height="8" rx="4" fill="#353535"/>
<rect x="18" y="36" width="8" height="8" rx="4" fill="#353535"/>
<rect x="18" y="54" width="8" height="8" rx="4" fill="#353535"/>
<rect x="18" y="72" width="8" height="8" rx="4" fill="#353535"/>
<rect x="18" y="90" width="8" height="8" rx="4" fill="#353535"/>
<rect x="18" y="108" width="8" height="8" rx="4" fill="#353535"/>
<rect x="18" y="126" width="8" height="8" rx="4" fill="#353535"/>
<rect x="18" y="144" width="8" height="8" rx="4" fill="#353535"/>
<rect x="36" width="8" height="8" rx="4" fill="#353535"/>
<rect x="36" y="18" width="8" height="8" rx="4" fill="#353535"/>
<rect x="36" y="36" width="8" height="8" rx="4" fill="#353535"/>
<rect x="36" y="54" width="8" height="8" rx="4" fill="#353535"/>
<rect x="36" y="72" width="8" height="8" rx="4" fill="#353535"/>
<rect x="36" y="90" width="8" height="8" rx="4" fill="#353535"/>
<rect x="36" y="108" width="8" height="8" rx="4" fill="#353535"/>
<rect x="36" y="126" width="8" height="8" rx="4" fill="#353535"/>
<rect x="36" y="144" width="8" height="8" rx="4" fill="#353535"/>
<rect x="54" width="8" height="8" rx="4" fill="#353535"/>
<rect x="54" y="18" width="8" height="8" rx="4" fill="#353535"/>
<rect x="54" y="36" width="8" height="8" rx="4" fill="#353535"/>
<rect x="54" y="54" width="8" height="8" rx="4" fill="#353535"/>
<rect x="54" y="72" width="8" height="8" rx="4" fill="#353535"/>
<rect x="54" y="90" width="8" height="8" rx="4" fill="#353535"/>
<rect x="54" y="108" width="8" height="8" rx="4" fill="#353535"/>
<rect x="54" y="126" width="8" height="8" rx="4" fill="#353535"/>
<rect x="54" y="144" width="8" height="8" rx="4" fill="#353535"/>
<rect x="72" width="8" height="8" rx="4" fill="#353535"/>
<rect x="72" y="18" width="8" height="8" rx="4" fill="#353535"/>
<rect x="72" y="36" width="8" height="8" rx="4" fill="#353535"/>
<rect x="72" y="54" width="8" height="8" rx="4" fill="#353535"/>
<rect x="72" y="72" width="8" height="8" rx="4" fill="#353535"/>
<rect x="72" y="90" width="8" height="8" rx="4" fill="#353535"/>
<rect x="72" y="108" width="8" height="8" rx="4" fill="#353535"/>
<rect x="72" y="126" width="8" height="8" rx="4" fill="#353535"/>
<rect x="72" y="144" width="8" height="8" rx="4" fill="#353535"/>
<rect x="90" width="8" height="8" rx="4" fill="#353535"/>
<rect x="90" y="18" width="8" height="8" rx="4" fill="#353535"/>
<rect x="90" y="36" width="8" height="8" rx="4" fill="#353535"/>
<rect x="90" y="54" width="8" height="8" rx="4" fill="#353535"/>
<rect x="90" y="72" width="8" height="8" rx="4" fill="#353535"/>
<rect x="90" y="90" width="8" height="8" rx="4" fill="#353535"/>
<rect x="90" y="108" width="8" height="8" rx="4" fill="#353535"/>
<rect x="90" y="126" width="8" height="8" rx="4" fill="#353535"/>
<rect x="90" y="144" width="8" height="8" rx="4" fill="#353535"/>
<rect x="108" width="8" height="8" rx="4" fill="#353535"/>
<rect x="108" y="18" width="8" height="8" rx="4" fill="#353535"/>
<rect x="108" y="36" width="8" height="8" rx="4" fill="#353535"/>
<rect x="108" y="54" width="8" height="8" rx="4" fill="#353535"/>
<rect x="108" y="72" width="8" height="8" rx="4" fill="#353535"/>
<rect x="108" y="90" width="8" height="8" rx="4" fill="#353535"/>
<rect x="108" y="108" width="8" height="8" rx="4" fill="#353535"/>
<rect x="108" y="126" width="8" height="8" rx="4" fill="#353535"/>
<rect x="108" y="144" width="8" height="8" rx="4" fill="#353535"/>
<rect x="126" width="8" height="8" rx="4" fill="#353535"/>
<rect x="126" y="18" width="8" height="8" rx="4" fill="#353535"/>
<rect x="126" y="36" width="8" height="8" rx="4" fill="#353535"/>
<rect x="126" y="54" width="8" height="8" rx="4" fill="#353535"/>
<rect x="126" y="72" width="8" height="8" rx="4" fill="#353535"/>
<rect x="126" y="90" width="8" height="8" rx="4" fill="#353535"/>
<rect x="126" y="108" width="8" height="8" rx="4" fill="#353535"/>
<rect x="126" y="126" width="8" height="8" rx="4" fill="#353535"/>
<rect x="126" y="144" width="8" height="8" rx="4" fill="#353535"/>
<rect x="144" width="8" height="8" rx="4" fill="#353535"/>
<rect x="144" y="18" width="8" height="8" rx="4" fill="#353535"/>
<rect x="144" y="36" width="8" height="8" rx="4" fill="#353535"/>
<rect x="144" y="54" width="8" height="8" rx="4" fill="#353535"/>
<rect x="144" y="72" width="8" height="8" rx="4" fill="#353535"/>
<rect x="144" y="90" width="8" height="8" rx="4" fill="#353535"/>
<rect x="144" y="108" width="8" height="8" rx="4" fill="#353535"/>
<rect x="144" y="126" width="8" height="8" rx="4" fill="#353535"/>
<rect x="144" y="144" width="8" height="8" rx="4" fill="#353535"/>
<rect x="162" width="8" height="8" rx="4" fill="#353535"/>
<rect x="162" y="18" width="8" height="8" rx="4" fill="#353535"/>
<rect x="162" y="36" width="8" height="8" rx="4" fill="#353535"/>
<rect x="162" y="54" width="8" height="8" rx="4" fill="#353535"/>
<rect x="162" y="72" width="8" height="8" rx="4" fill="#353535"/>
<rect x="162" y="90" width="8" height="8" rx="4" fill="#353535"/>
<rect x="162" y="108" width="8" height="8" rx="4" fill="#353535"/>
<rect x="162" y="126" width="8" height="8" rx="4" fill="#353535"/>
<rect x="162" y="144" width="8" height="8" rx="4" fill="#353535"/>
</svg>
