<svg width="142" height="226" viewBox="0 0 142 226" fill="none" xmlns="http://www.w3.org/2000/svg">
<path d="M-82.1 3.8C-81.0507 3.8 -80.2 2.94934 -80.2 1.9C-80.2 0.850659 -81.0507 0 -82.1 0C-83.1493 0 -84 0.850659 -84 1.9C-84 2.94934 -83.1493 3.8 -82.1 3.8Z" fill="white" fill-opacity="0.1"/>
<path d="M-57.4 3.8C-56.3507 3.8 -55.5 2.94934 -55.5 1.9C-55.5 0.850659 -56.3507 0 -57.4 0C-58.4493 0 -59.3 0.850659 -59.3 1.9C-59.3 2.94934 -58.4493 3.8 -57.4 3.8Z" fill="white" fill-opacity="0.1"/>
<path d="M-32.7 3.8C-31.6507 3.8 -30.8 2.94934 -30.8 1.9C-30.8 0.850659 -31.6507 0 -32.7 0C-33.7493 0 -34.6 0.850659 -34.6 1.9C-34.6 2.94934 -33.7493 3.8 -32.7 3.8Z" fill="white" fill-opacity="0.1"/>
<path d="M-82.1 28.5C-81.0507 28.5 -80.2 27.6493 -80.2 26.6C-80.2 25.5507 -81.0507 24.7 -82.1 24.7C-83.1493 24.7 -84 25.5507 -84 26.6C-84 27.6493 -83.1493 28.5 -82.1 28.5Z" fill="white" fill-opacity="0.1"/>
<path d="M-57.4 28.5C-56.3507 28.5 -55.5 27.6493 -55.5 26.6C-55.5 25.5507 -56.3507 24.7 -57.4 24.7C-58.4493 24.7 -59.3 25.5507 -59.3 26.6C-59.3 27.6493 -58.4493 28.5 -57.4 28.5Z" fill="white" fill-opacity="0.1"/>
<path d="M-32.7 28.5C-31.6507 28.5 -30.8 27.6493 -30.8 26.6C-30.8 25.5507 -31.6507 24.7 -32.7 24.7C-33.7493 24.7 -34.6 25.5507 -34.6 26.6C-34.6 27.6493 -33.7493 28.5 -32.7 28.5Z" fill="white" fill-opacity="0.1"/>
<path d="M-82.1 53.2C-81.0507 53.2 -80.2 52.3493 -80.2 51.3C-80.2 50.2507 -81.0507 49.4 -82.1 49.4C-83.1493 49.4 -84 50.2507 -84 51.3C-84 52.3493 -83.1493 53.2 -82.1 53.2Z" fill="white" fill-opacity="0.1"/>
<path d="M-57.4 53.2C-56.3507 53.2 -55.5 52.3493 -55.5 51.3C-55.5 50.2507 -56.3507 49.4 -57.4 49.4C-58.4493 49.4 -59.3 50.2507 -59.3 51.3C-59.3 52.3493 -58.4493 53.2 -57.4 53.2Z" fill="white" fill-opacity="0.1"/>
<path d="M-32.7 53.2C-31.6507 53.2 -30.8 52.3493 -30.8 51.3C-30.8 50.2507 -31.6507 49.4 -32.7 49.4C-33.7493 49.4 -34.6 50.2507 -34.6 51.3C-34.6 52.3493 -33.7493 53.2 -32.7 53.2Z" fill="white" fill-opacity="0.1"/>
<path d="M-82.1 77.8C-81.0507 77.8 -80.2 76.9493 -80.2 75.9C-80.2 74.8507 -81.0507 74 -82.1 74C-83.1493 74 -84 74.8507 -84 75.9C-84 76.9493 -83.1493 77.8 -82.1 77.8Z" fill="white" fill-opacity="0.1"/>
<path d="M-57.4 77.8C-56.3507 77.8 -55.5 76.9493 -55.5 75.9C-55.5 74.8507 -56.3507 74 -57.4 74C-58.4493 74 -59.3 74.8507 -59.3 75.9C-59.3 76.9493 -58.4493 77.8 -57.4 77.8Z" fill="white" fill-opacity="0.1"/>
<path d="M-32.7 77.8C-31.6507 77.8 -30.8 76.9493 -30.8 75.9C-30.8 74.8507 -31.6507 74 -32.7 74C-33.7493 74 -34.6 74.8507 -34.6 75.9C-34.6 76.9493 -33.7493 77.8 -32.7 77.8Z" fill="white" fill-opacity="0.1"/>
<path d="M-82.1 102.5C-81.0507 102.5 -80.2 101.649 -80.2 100.6C-80.2 99.5507 -81.0507 98.7 -82.1 98.7C-83.1493 98.7 -84 99.5507 -84 100.6C-84 101.649 -83.1493 102.5 -82.1 102.5Z" fill="white" fill-opacity="0.1"/>
<path d="M-57.4 102.5C-56.3507 102.5 -55.5 101.649 -55.5 100.6C-55.5 99.5507 -56.3507 98.7 -57.4 98.7C-58.4493 98.7 -59.3 99.5507 -59.3 100.6C-59.3 101.649 -58.4493 102.5 -57.4 102.5Z" fill="white" fill-opacity="0.1"/>
<path d="M-32.7 102.5C-31.6507 102.5 -30.8 101.649 -30.8 100.6C-30.8 99.5507 -31.6507 98.7 -32.7 98.7C-33.7493 98.7 -34.6 99.5507 -34.6 100.6C-34.6 101.649 -33.7493 102.5 -32.7 102.5Z" fill="white" fill-opacity="0.1"/>
<path d="M-82.1 127.2C-81.0507 127.2 -80.2 126.349 -80.2 125.3C-80.2 124.251 -81.0507 123.4 -82.1 123.4C-83.1493 123.4 -84 124.251 -84 125.3C-84 126.349 -83.1493 127.2 -82.1 127.2Z" fill="white" fill-opacity="0.1"/>
<path d="M-57.4 127.2C-56.3507 127.2 -55.5 126.349 -55.5 125.3C-55.5 124.251 -56.3507 123.4 -57.4 123.4C-58.4493 123.4 -59.3 124.251 -59.3 125.3C-59.3 126.349 -58.4493 127.2 -57.4 127.2Z" fill="white" fill-opacity="0.1"/>
<path d="M-32.7 127.2C-31.6507 127.2 -30.8 126.349 -30.8 125.3C-30.8 124.251 -31.6507 123.4 -32.7 123.4C-33.7493 123.4 -34.6 124.251 -34.6 125.3C-34.6 126.349 -33.7493 127.2 -32.7 127.2Z" fill="white" fill-opacity="0.1"/>
<path d="M-82.1 151.8C-81.0507 151.8 -80.2 150.949 -80.2 149.9C-80.2 148.851 -81.0507 148 -82.1 148C-83.1493 148 -84 148.851 -84 149.9C-84 150.949 -83.1493 151.8 -82.1 151.8Z" fill="white" fill-opacity="0.1"/>
<path d="M-57.4 151.8C-56.3507 151.8 -55.5 150.949 -55.5 149.9C-55.5 148.851 -56.3507 148 -57.4 148C-58.4493 148 -59.3 148.851 -59.3 149.9C-59.3 150.949 -58.4493 151.8 -57.4 151.8Z" fill="white" fill-opacity="0.1"/>
<path d="M-32.7 151.8C-31.6507 151.8 -30.8 150.949 -30.8 149.9C-30.8 148.851 -31.6507 148 -32.7 148C-33.7493 148 -34.6 148.851 -34.6 149.9C-34.6 150.949 -33.7493 151.8 -32.7 151.8Z" fill="white" fill-opacity="0.1"/>
<path d="M-82.1 176.5C-81.0507 176.5 -80.2 175.649 -80.2 174.6C-80.2 173.551 -81.0507 172.7 -82.1 172.7C-83.1493 172.7 -84 173.551 -84 174.6C-84 175.649 -83.1493 176.5 -82.1 176.5Z" fill="white" fill-opacity="0.1"/>
<path d="M-57.4 176.5C-56.3507 176.5 -55.5 175.649 -55.5 174.6C-55.5 173.551 -56.3507 172.7 -57.4 172.7C-58.4493 172.7 -59.3 173.551 -59.3 174.6C-59.3 175.649 -58.4493 176.5 -57.4 176.5Z" fill="white" fill-opacity="0.1"/>
<path d="M-32.7 176.5C-31.6507 176.5 -30.8 175.649 -30.8 174.6C-30.8 173.551 -31.6507 172.7 -32.7 172.7C-33.7493 172.7 -34.6 173.551 -34.6 174.6C-34.6 175.649 -33.7493 176.5 -32.7 176.5Z" fill="white" fill-opacity="0.1"/>
<path d="M-82.1 201.2C-81.0507 201.2 -80.2 200.349 -80.2 199.3C-80.2 198.251 -81.0507 197.4 -82.1 197.4C-83.1493 197.4 -84 198.251 -84 199.3C-84 200.349 -83.1493 201.2 -82.1 201.2Z" fill="white" fill-opacity="0.1"/>
<path d="M-57.4 201.2C-56.3507 201.2 -55.5 200.349 -55.5 199.3C-55.5 198.251 -56.3507 197.4 -57.4 197.4C-58.4493 197.4 -59.3 198.251 -59.3 199.3C-59.3 200.349 -58.4493 201.2 -57.4 201.2Z" fill="white" fill-opacity="0.1"/>
<path d="M-32.7 201.2C-31.6507 201.2 -30.8 200.349 -30.8 199.3C-30.8 198.251 -31.6507 197.4 -32.7 197.4C-33.7493 197.4 -34.6 198.251 -34.6 199.3C-34.6 200.349 -33.7493 201.2 -32.7 201.2Z" fill="white" fill-opacity="0.1"/>
<path d="M-82.1 225.8C-81.0507 225.8 -80.2 224.949 -80.2 223.9C-80.2 222.851 -81.0507 222 -82.1 222C-83.1493 222 -84 222.851 -84 223.9C-84 224.949 -83.1493 225.8 -82.1 225.8Z" fill="white" fill-opacity="0.1"/>
<path d="M-57.4 225.8C-56.3507 225.8 -55.5 224.949 -55.5 223.9C-55.5 222.851 -56.3507 222 -57.4 222C-58.4493 222 -59.3 222.851 -59.3 223.9C-59.3 224.949 -58.4493 225.8 -57.4 225.8Z" fill="white" fill-opacity="0.1"/>
<path d="M-32.7 225.8C-31.6507 225.8 -30.8 224.949 -30.8 223.9C-30.8 222.851 -31.6507 222 -32.7 222C-33.7493 222 -34.6 222.851 -34.6 223.9C-34.6 224.949 -33.7493 225.8 -32.7 225.8Z" fill="white" fill-opacity="0.1"/>
<path d="M-8.1 3.8C-7.0507 3.8 -6.2 2.94934 -6.2 1.9C-6.2 0.850659 -7.0507 0 -8.1 0C-9.1493 0 -10 0.850659 -10 1.9C-10 2.94934 -9.1493 3.8 -8.1 3.8Z" fill="white" fill-opacity="0.1"/>
<path d="M16.6 3.8C17.649 3.8 18.5 2.94934 18.5 1.9C18.5 0.850659 17.649 0 16.6 0C15.5507 0 14.7 0.850659 14.7 1.9C14.7 2.94934 15.5507 3.8 16.6 3.8Z" fill="white" fill-opacity="0.1"/>
<path d="M-8.1 28.5C-7.0507 28.5 -6.2 27.6493 -6.2 26.6C-6.2 25.5507 -7.0507 24.7 -8.1 24.7C-9.1493 24.7 -10 25.5507 -10 26.6C-10 27.6493 -9.1493 28.5 -8.1 28.5Z" fill="white" fill-opacity="0.1"/>
<path d="M16.6 28.5C17.649 28.5 18.5 27.6493 18.5 26.6C18.5 25.5507 17.649 24.7 16.6 24.7C15.5507 24.7 14.7 25.5507 14.7 26.6C14.7 27.6493 15.5507 28.5 16.6 28.5Z" fill="white" fill-opacity="0.1"/>
<path d="M-8.1 53.2C-7.0507 53.2 -6.2 52.3493 -6.2 51.3C-6.2 50.2507 -7.0507 49.4 -8.1 49.4C-9.1493 49.4 -10 50.2507 -10 51.3C-10 52.3493 -9.1493 53.2 -8.1 53.2Z" fill="white" fill-opacity="0.1"/>
<path d="M16.6 53.2C17.649 53.2 18.5 52.3493 18.5 51.3C18.5 50.2507 17.649 49.4 16.6 49.4C15.5507 49.4 14.7 50.2507 14.7 51.3C14.7 52.3493 15.5507 53.2 16.6 53.2Z" fill="white" fill-opacity="0.1"/>
<path d="M-8.1 77.8C-7.0507 77.8 -6.2 76.9493 -6.2 75.9C-6.2 74.8507 -7.0507 74 -8.1 74C-9.1493 74 -10 74.8507 -10 75.9C-10 76.9493 -9.1493 77.8 -8.1 77.8Z" fill="white" fill-opacity="0.1"/>
<path d="M16.6 77.8C17.649 77.8 18.5 76.9493 18.5 75.9C18.5 74.8507 17.649 74 16.6 74C15.5507 74 14.7 74.8507 14.7 75.9C14.7 76.9493 15.5507 77.8 16.6 77.8Z" fill="white" fill-opacity="0.1"/>
<path d="M-8.1 102.5C-7.0507 102.5 -6.2 101.649 -6.2 100.6C-6.2 99.5507 -7.0507 98.7 -8.1 98.7C-9.1493 98.7 -10 99.5507 -10 100.6C-10 101.649 -9.1493 102.5 -8.1 102.5Z" fill="white" fill-opacity="0.1"/>
<path d="M16.6 102.5C17.649 102.5 18.5 101.649 18.5 100.6C18.5 99.5507 17.649 98.7 16.6 98.7C15.5507 98.7 14.7 99.5507 14.7 100.6C14.7 101.649 15.5507 102.5 16.6 102.5Z" fill="white" fill-opacity="0.1"/>
<path d="M-8.1 127.2C-7.0507 127.2 -6.2 126.349 -6.2 125.3C-6.2 124.251 -7.0507 123.4 -8.1 123.4C-9.1493 123.4 -10 124.251 -10 125.3C-10 126.349 -9.1493 127.2 -8.1 127.2Z" fill="white" fill-opacity="0.1"/>
<path d="M16.6 127.2C17.649 127.2 18.5 126.349 18.5 125.3C18.5 124.251 17.649 123.4 16.6 123.4C15.5507 123.4 14.7 124.251 14.7 125.3C14.7 126.349 15.5507 127.2 16.6 127.2Z" fill="white" fill-opacity="0.1"/>
<path d="M-8.1 151.8C-7.0507 151.8 -6.2 150.949 -6.2 149.9C-6.2 148.851 -7.0507 148 -8.1 148C-9.1493 148 -10 148.851 -10 149.9C-10 150.949 -9.1493 151.8 -8.1 151.8Z" fill="white" fill-opacity="0.1"/>
<path d="M16.6 151.8C17.649 151.8 18.5 150.949 18.5 149.9C18.5 148.851 17.649 148 16.6 148C15.5507 148 14.7 148.851 14.7 149.9C14.7 150.949 15.5507 151.8 16.6 151.8Z" fill="white" fill-opacity="0.1"/>
<path d="M-8.1 176.5C-7.0507 176.5 -6.2 175.649 -6.2 174.6C-6.2 173.551 -7.0507 172.7 -8.1 172.7C-9.1493 172.7 -10 173.551 -10 174.6C-10 175.649 -9.1493 176.5 -8.1 176.5Z" fill="white" fill-opacity="0.1"/>
<path d="M16.6 176.5C17.649 176.5 18.5 175.649 18.5 174.6C18.5 173.551 17.649 172.7 16.6 172.7C15.5507 172.7 14.7 173.551 14.7 174.6C14.7 175.649 15.5507 176.5 16.6 176.5Z" fill="white" fill-opacity="0.1"/>
<path d="M-8.1 201.2C-7.0507 201.2 -6.2 200.349 -6.2 199.3C-6.2 198.251 -7.0507 197.4 -8.1 197.4C-9.1493 197.4 -10 198.251 -10 199.3C-10 200.349 -9.1493 201.2 -8.1 201.2Z" fill="white" fill-opacity="0.1"/>
<path d="M16.6 201.2C17.649 201.2 18.5 200.349 18.5 199.3C18.5 198.251 17.649 197.4 16.6 197.4C15.5507 197.4 14.7 198.251 14.7 199.3C14.7 200.349 15.5507 201.2 16.6 201.2Z" fill="white" fill-opacity="0.1"/>
<path d="M-8.1 225.8C-7.0507 225.8 -6.2 224.949 -6.2 223.9C-6.2 222.851 -7.0507 222 -8.1 222C-9.1493 222 -10 222.851 -10 223.9C-10 224.949 -9.1493 225.8 -8.1 225.8Z" fill="white" fill-opacity="0.1"/>
<path d="M16.6 225.8C17.649 225.8 18.5 224.949 18.5 223.9C18.5 222.851 17.649 222 16.6 222C15.5507 222 14.7 222.851 14.7 223.9C14.7 224.949 15.5507 225.8 16.6 225.8Z" fill="white" fill-opacity="0.1"/>
<path d="M41.3 3.8C42.349 3.8 43.2 2.94934 43.2 1.9C43.2 0.850659 42.349 0 41.3 0C40.251 0 39.4 0.850659 39.4 1.9C39.4 2.94934 40.251 3.8 41.3 3.8Z" fill="white" fill-opacity="0.1"/>
<path d="M65.9 3.8C66.949 3.8 67.8 2.94934 67.8 1.9C67.8 0.850659 66.949 0 65.9 0C64.851 0 64 0.850659 64 1.9C64 2.94934 64.851 3.8 65.9 3.8Z" fill="white" fill-opacity="0.1"/>
<path d="M90.6 3.8C91.649 3.8 92.5 2.94934 92.5 1.9C92.5 0.850659 91.649 0 90.6 0C89.551 0 88.7 0.850659 88.7 1.9C88.7 2.94934 89.551 3.8 90.6 3.8Z" fill="white" fill-opacity="0.1"/>
<path d="M41.3 28.5C42.349 28.5 43.2 27.6493 43.2 26.6C43.2 25.5507 42.349 24.7 41.3 24.7C40.251 24.7 39.4 25.5507 39.4 26.6C39.4 27.6493 40.251 28.5 41.3 28.5Z" fill="white" fill-opacity="0.1"/>
<path d="M65.9 28.5C66.949 28.5 67.8 27.6493 67.8 26.6C67.8 25.5507 66.949 24.7 65.9 24.7C64.851 24.7 64 25.5507 64 26.6C64 27.6493 64.851 28.5 65.9 28.5Z" fill="white" fill-opacity="0.1"/>
<path d="M90.6 28.5C91.649 28.5 92.5 27.6493 92.5 26.6C92.5 25.5507 91.649 24.7 90.6 24.7C89.551 24.7 88.7 25.5507 88.7 26.6C88.7 27.6493 89.551 28.5 90.6 28.5Z" fill="white" fill-opacity="0.1"/>
<path d="M41.3 53.2C42.349 53.2 43.2 52.3493 43.2 51.3C43.2 50.2507 42.349 49.4 41.3 49.4C40.251 49.4 39.4 50.2507 39.4 51.3C39.4 52.3493 40.251 53.2 41.3 53.2Z" fill="white" fill-opacity="0.1"/>
<path d="M65.9 53.2C66.949 53.2 67.8 52.3493 67.8 51.3C67.8 50.2507 66.949 49.4 65.9 49.4C64.851 49.4 64 50.2507 64 51.3C64 52.3493 64.851 53.2 65.9 53.2Z" fill="white" fill-opacity="0.1"/>
<path d="M90.6 53.2C91.649 53.2 92.5 52.3493 92.5 51.3C92.5 50.2507 91.649 49.4 90.6 49.4C89.551 49.4 88.7 50.2507 88.7 51.3C88.7 52.3493 89.551 53.2 90.6 53.2Z" fill="white" fill-opacity="0.1"/>
<path d="M41.3 77.8C42.349 77.8 43.2 76.9493 43.2 75.9C43.2 74.8507 42.349 74 41.3 74C40.251 74 39.4 74.8507 39.4 75.9C39.4 76.9493 40.251 77.8 41.3 77.8Z" fill="white" fill-opacity="0.1"/>
<path d="M65.9 77.8C66.949 77.8 67.8 76.9493 67.8 75.9C67.8 74.8507 66.949 74 65.9 74C64.851 74 64 74.8507 64 75.9C64 76.9493 64.851 77.8 65.9 77.8Z" fill="white" fill-opacity="0.1"/>
<path d="M90.6 77.8C91.649 77.8 92.5 76.9493 92.5 75.9C92.5 74.8507 91.649 74 90.6 74C89.551 74 88.7 74.8507 88.7 75.9C88.7 76.9493 89.551 77.8 90.6 77.8Z" fill="white" fill-opacity="0.1"/>
<path d="M41.3 102.5C42.349 102.5 43.2 101.649 43.2 100.6C43.2 99.5507 42.349 98.7 41.3 98.7C40.251 98.7 39.4 99.5507 39.4 100.6C39.4 101.649 40.251 102.5 41.3 102.5Z" fill="white" fill-opacity="0.1"/>
<path d="M65.9 102.5C66.949 102.5 67.8 101.649 67.8 100.6C67.8 99.5507 66.949 98.7 65.9 98.7C64.851 98.7 64 99.5507 64 100.6C64 101.649 64.851 102.5 65.9 102.5Z" fill="white" fill-opacity="0.1"/>
<path d="M90.6 102.5C91.649 102.5 92.5 101.649 92.5 100.6C92.5 99.5507 91.649 98.7 90.6 98.7C89.551 98.7 88.7 99.5507 88.7 100.6C88.7 101.649 89.551 102.5 90.6 102.5Z" fill="white" fill-opacity="0.1"/>
<path d="M41.3 127.2C42.349 127.2 43.2 126.349 43.2 125.3C43.2 124.251 42.349 123.4 41.3 123.4C40.251 123.4 39.4 124.251 39.4 125.3C39.4 126.349 40.251 127.2 41.3 127.2Z" fill="white" fill-opacity="0.1"/>
<path d="M65.9 127.2C66.949 127.2 67.8 126.349 67.8 125.3C67.8 124.251 66.949 123.4 65.9 123.4C64.851 123.4 64 124.251 64 125.3C64 126.349 64.851 127.2 65.9 127.2Z" fill="white" fill-opacity="0.1"/>
<path d="M90.6 127.2C91.649 127.2 92.5 126.349 92.5 125.3C92.5 124.251 91.649 123.4 90.6 123.4C89.551 123.4 88.7 124.251 88.7 125.3C88.7 126.349 89.551 127.2 90.6 127.2Z" fill="white" fill-opacity="0.1"/>
<path d="M41.3 151.8C42.349 151.8 43.2 150.949 43.2 149.9C43.2 148.851 42.349 148 41.3 148C40.251 148 39.4 148.851 39.4 149.9C39.4 150.949 40.251 151.8 41.3 151.8Z" fill="white" fill-opacity="0.1"/>
<path d="M65.9 151.8C66.949 151.8 67.8 150.949 67.8 149.9C67.8 148.851 66.949 148 65.9 148C64.851 148 64 148.851 64 149.9C64 150.949 64.851 151.8 65.9 151.8Z" fill="white" fill-opacity="0.1"/>
<path d="M90.6 151.8C91.649 151.8 92.5 150.949 92.5 149.9C92.5 148.851 91.649 148 90.6 148C89.551 148 88.7 148.851 88.7 149.9C88.7 150.949 89.551 151.8 90.6 151.8Z" fill="white" fill-opacity="0.1"/>
<path d="M41.3 176.5C42.349 176.5 43.2 175.649 43.2 174.6C43.2 173.551 42.349 172.7 41.3 172.7C40.251 172.7 39.4 173.551 39.4 174.6C39.4 175.649 40.251 176.5 41.3 176.5Z" fill="white" fill-opacity="0.1"/>
<path d="M65.9 176.5C66.949 176.5 67.8 175.649 67.8 174.6C67.8 173.551 66.949 172.7 65.9 172.7C64.851 172.7 64 173.551 64 174.6C64 175.649 64.851 176.5 65.9 176.5Z" fill="white" fill-opacity="0.1"/>
<path d="M90.6 176.5C91.649 176.5 92.5 175.649 92.5 174.6C92.5 173.551 91.649 172.7 90.6 172.7C89.551 172.7 88.7 173.551 88.7 174.6C88.7 175.649 89.551 176.5 90.6 176.5Z" fill="white" fill-opacity="0.1"/>
<path d="M41.3 201.2C42.349 201.2 43.2 200.349 43.2 199.3C43.2 198.251 42.349 197.4 41.3 197.4C40.251 197.4 39.4 198.251 39.4 199.3C39.4 200.349 40.251 201.2 41.3 201.2Z" fill="white" fill-opacity="0.1"/>
<path d="M65.9 201.2C66.949 201.2 67.8 200.349 67.8 199.3C67.8 198.251 66.949 197.4 65.9 197.4C64.851 197.4 64 198.251 64 199.3C64 200.349 64.851 201.2 65.9 201.2Z" fill="white" fill-opacity="0.1"/>
<path d="M90.6 201.2C91.649 201.2 92.5 200.349 92.5 199.3C92.5 198.251 91.649 197.4 90.6 197.4C89.551 197.4 88.7 198.251 88.7 199.3C88.7 200.349 89.551 201.2 90.6 201.2Z" fill="white" fill-opacity="0.1"/>
<path d="M41.3 225.8C42.349 225.8 43.2 224.949 43.2 223.9C43.2 222.851 42.349 222 41.3 222C40.251 222 39.4 222.851 39.4 223.9C39.4 224.949 40.251 225.8 41.3 225.8Z" fill="white" fill-opacity="0.1"/>
<path d="M65.9 225.8C66.949 225.8 67.8 224.949 67.8 223.9C67.8 222.851 66.949 222 65.9 222C64.851 222 64 222.851 64 223.9C64 224.949 64.851 225.8 65.9 225.8Z" fill="white" fill-opacity="0.1"/>
<path d="M90.6 225.8C91.649 225.8 92.5 224.949 92.5 223.9C92.5 222.851 91.649 222 90.6 222C89.551 222 88.7 222.851 88.7 223.9C88.7 224.949 89.551 225.8 90.6 225.8Z" fill="white" fill-opacity="0.1"/>
<path d="M115.3 3.8C116.349 3.8 117.2 2.94934 117.2 1.9C117.2 0.850659 116.349 0 115.3 0C114.251 0 113.4 0.850659 113.4 1.9C113.4 2.94934 114.251 3.8 115.3 3.8Z" fill="white" fill-opacity="0.1"/>
<path d="M139.9 3.8C140.949 3.8 141.8 2.94934 141.8 1.9C141.8 0.850659 140.949 0 139.9 0C138.851 0 138 0.850659 138 1.9C138 2.94934 138.851 3.8 139.9 3.8Z" fill="white" fill-opacity="0.1"/>
<path d="M115.3 28.5C116.349 28.5 117.2 27.6493 117.2 26.6C117.2 25.5507 116.349 24.7 115.3 24.7C114.251 24.7 113.4 25.5507 113.4 26.6C113.4 27.6493 114.251 28.5 115.3 28.5Z" fill="white" fill-opacity="0.1"/>
<path d="M139.9 28.5C140.949 28.5 141.8 27.6493 141.8 26.6C141.8 25.5507 140.949 24.7 139.9 24.7C138.851 24.7 138 25.5507 138 26.6C138 27.6493 138.851 28.5 139.9 28.5Z" fill="white" fill-opacity="0.1"/>
<path d="M115.3 53.2C116.349 53.2 117.2 52.3493 117.2 51.3C117.2 50.2507 116.349 49.4 115.3 49.4C114.251 49.4 113.4 50.2507 113.4 51.3C113.4 52.3493 114.251 53.2 115.3 53.2Z" fill="white" fill-opacity="0.1"/>
<path d="M139.9 53.2C140.949 53.2 141.8 52.3493 141.8 51.3C141.8 50.2507 140.949 49.4 139.9 49.4C138.851 49.4 138 50.2507 138 51.3C138 52.3493 138.851 53.2 139.9 53.2Z" fill="white" fill-opacity="0.1"/>
<path d="M115.3 77.8C116.349 77.8 117.2 76.9493 117.2 75.9C117.2 74.8507 116.349 74 115.3 74C114.251 74 113.4 74.8507 113.4 75.9C113.4 76.9493 114.251 77.8 115.3 77.8Z" fill="white" fill-opacity="0.1"/>
<path d="M139.9 77.8C140.949 77.8 141.8 76.9493 141.8 75.9C141.8 74.8507 140.949 74 139.9 74C138.851 74 138 74.8507 138 75.9C138 76.9493 138.851 77.8 139.9 77.8Z" fill="white" fill-opacity="0.1"/>
<path d="M115.3 102.5C116.349 102.5 117.2 101.649 117.2 100.6C117.2 99.5507 116.349 98.7 115.3 98.7C114.251 98.7 113.4 99.5507 113.4 100.6C113.4 101.649 114.251 102.5 115.3 102.5Z" fill="white" fill-opacity="0.1"/>
<path d="M139.9 102.5C140.949 102.5 141.8 101.649 141.8 100.6C141.8 99.5507 140.949 98.7 139.9 98.7C138.851 98.7 138 99.5507 138 100.6C138 101.649 138.851 102.5 139.9 102.5Z" fill="white" fill-opacity="0.1"/>
<path d="M115.3 127.2C116.349 127.2 117.2 126.349 117.2 125.3C117.2 124.251 116.349 123.4 115.3 123.4C114.251 123.4 113.4 124.251 113.4 125.3C113.4 126.349 114.251 127.2 115.3 127.2Z" fill="white" fill-opacity="0.1"/>
<path d="M139.9 127.2C140.949 127.2 141.8 126.349 141.8 125.3C141.8 124.251 140.949 123.4 139.9 123.4C138.851 123.4 138 124.251 138 125.3C138 126.349 138.851 127.2 139.9 127.2Z" fill="white" fill-opacity="0.1"/>
<path d="M115.3 151.8C116.349 151.8 117.2 150.949 117.2 149.9C117.2 148.851 116.349 148 115.3 148C114.251 148 113.4 148.851 113.4 149.9C113.4 150.949 114.251 151.8 115.3 151.8Z" fill="white" fill-opacity="0.1"/>
<path d="M139.9 151.8C140.949 151.8 141.8 150.949 141.8 149.9C141.8 148.851 140.949 148 139.9 148C138.851 148 138 148.851 138 149.9C138 150.949 138.851 151.8 139.9 151.8Z" fill="white" fill-opacity="0.1"/>
<path d="M115.3 176.5C116.349 176.5 117.2 175.649 117.2 174.6C117.2 173.551 116.349 172.7 115.3 172.7C114.251 172.7 113.4 173.551 113.4 174.6C113.4 175.649 114.251 176.5 115.3 176.5Z" fill="white" fill-opacity="0.1"/>
<path d="M139.9 176.5C140.949 176.5 141.8 175.649 141.8 174.6C141.8 173.551 140.949 172.7 139.9 172.7C138.851 172.7 138 173.551 138 174.6C138 175.649 138.851 176.5 139.9 176.5Z" fill="white" fill-opacity="0.1"/>
<path d="M115.3 201.2C116.349 201.2 117.2 200.349 117.2 199.3C117.2 198.251 116.349 197.4 115.3 197.4C114.251 197.4 113.4 198.251 113.4 199.3C113.4 200.349 114.251 201.2 115.3 201.2Z" fill="white" fill-opacity="0.1"/>
<path d="M139.9 201.2C140.949 201.2 141.8 200.349 141.8 199.3C141.8 198.251 140.949 197.4 139.9 197.4C138.851 197.4 138 198.251 138 199.3C138 200.349 138.851 201.2 139.9 201.2Z" fill="white" fill-opacity="0.1"/>
<path d="M115.3 225.8C116.349 225.8 117.2 224.949 117.2 223.9C117.2 222.851 116.349 222 115.3 222C114.251 222 113.4 222.851 113.4 223.9C113.4 224.949 114.251 225.8 115.3 225.8Z" fill="white" fill-opacity="0.1"/>
<path d="M139.9 225.8C140.949 225.8 141.8 224.949 141.8 223.9C141.8 222.851 140.949 222 139.9 222C138.851 222 138 222.851 138 223.9C138 224.949 138.851 225.8 139.9 225.8Z" fill="white" fill-opacity="0.1"/>
</svg>
