<svg width="28" height="28" viewBox="0 0 28 28" fill="none" xmlns="http://www.w3.org/2000/svg">
<path d="M9.33331 9.33334L9.33331 8.16669C9.33331 5.58935 11.4226 3.50001 14 3.50001V3.50001C16.5773 3.50001 18.6666 5.58935 18.6666 8.16668L18.6666 9.33334" stroke="#1F1F1F" stroke-width="2" stroke-linecap="round"/>
<path d="M17.5 16.3333V14" stroke="#1F1F1F" stroke-width="2" stroke-linecap="round"/>
<path d="M10.5 16.3333V14" stroke="#1F1F1F" stroke-width="2" stroke-linecap="round"/>
<path d="M4.66669 13.3333C4.66669 11.4477 4.66669 10.5049 5.25247 9.91913C5.83826 9.33334 6.78107 9.33334 8.66669 9.33334H19.3334C21.219 9.33334 22.1618 9.33334 22.7476 9.91913C23.3334 10.5049 23.3334 11.4477 23.3334 13.3333V16.5C23.3334 20.2712 23.3334 22.1569 22.1618 23.3284C20.9902 24.5 19.1046 24.5 15.3334 24.5H12.6667C8.89545 24.5 7.00983 24.5 5.83826 23.3284C4.66669 22.1569 4.66669 20.2712 4.66669 16.5V13.3333Z" stroke="#1F1F1F" stroke-width="2"/>
</svg>
