<svg width="198" height="60" viewBox="0 0 198 60" fill="none" xmlns="http://www.w3.org/2000/svg">
<path d="M23.9637 56.2577H24.989C24.9997 57.1383 25.277 57.8224 25.8254 58.3084C26.3724 58.7944 27.1418 59.0381 28.1351 59.0381C29.0066 59.0381 29.6906 58.8416 30.1904 58.45C30.6886 58.057 30.9384 57.5177 30.9384 56.8275C30.9384 56.1891 30.7632 55.7031 30.4143 55.3695C30.0654 55.0358 29.3676 54.7342 28.3256 54.466L27.2621 54.1994C26.1179 53.9054 25.3257 53.5321 24.8885 53.0796C24.4497 52.6271 24.2318 51.9887 24.2318 51.1691C24.2318 50.2626 24.5639 49.5358 25.2267 48.9889C25.8894 48.442 26.7761 48.1677 27.8853 48.1677C29.0599 48.1677 29.9786 48.4663 30.6398 49.0636C31.301 49.6608 31.6392 50.4972 31.6545 51.5698H30.6139C30.5987 50.7745 30.3503 50.1605 29.8689 49.7278C29.3875 49.2951 28.711 49.0788 27.8411 49.0788C27.0214 49.0788 26.3846 49.2631 25.9336 49.6334C25.4826 50.0036 25.2572 50.5246 25.2572 51.198C25.2572 51.713 25.4034 52.1182 25.6959 52.4153C25.99 52.7124 26.476 52.9455 27.1555 53.1146L28.4627 53.4422C29.7546 53.7652 30.6611 54.175 31.1837 54.6702C31.7048 55.1668 31.9668 55.8494 31.9668 56.7208C31.9668 57.7233 31.624 58.514 30.9369 59.0915C30.2513 59.6689 29.3128 59.9568 28.1229 59.9568C26.7914 59.9568 25.766 59.6445 25.0469 59.0183C24.3278 58.3937 23.9682 57.4978 23.9682 56.3323V56.2577H23.9637Z" fill="#777777"/>
<path fill-rule="evenodd" clip-rule="evenodd" d="M27.8853 48.2109C26.7832 48.2109 25.9072 48.4833 25.2542 49.0222C24.602 49.5605 24.275 50.2747 24.275 51.1691C24.275 51.9811 24.4907 52.6074 24.9195 53.0495C25.3481 53.4931 26.1306 53.864 27.2727 54.1575L28.3363 54.4242C29.3788 54.6924 30.0865 54.9962 30.4442 55.3383C30.804 55.6824 30.9816 56.1813 30.9816 56.8275C30.9816 57.5296 30.7266 58.0819 30.2171 58.4839C29.7074 58.8833 29.0127 59.0813 28.1351 59.0813C27.135 59.0813 26.354 58.8358 25.7967 58.3406C25.2463 57.8528 24.9657 57.1705 24.9466 56.3009H24.0114V56.3323C24.0114 57.4884 24.3676 58.3711 25.0752 58.9857C25.7838 59.6028 26.7976 59.9136 28.1229 59.9136C29.306 59.9136 30.2335 59.6274 30.9091 59.0584C31.5852 58.4903 31.9236 57.7123 31.9236 56.7208C31.9236 55.8587 31.6647 55.1884 31.154 54.7015C30.6397 54.2142 29.7421 53.8066 28.4522 53.4841L27.1451 53.1565C26.4625 52.9867 25.9674 52.751 25.6652 52.4457C25.363 52.1387 25.214 51.7215 25.214 51.198C25.214 50.5139 25.4436 49.9797 25.9062 49.6C26.3675 49.2213 27.0155 49.0356 27.8411 49.0356C28.7179 49.0356 29.406 49.2537 29.8978 49.6957C30.3814 50.1304 30.6327 50.7426 30.656 51.5266H31.6105C31.5869 50.4845 31.2524 49.6751 30.6109 49.0956C29.9598 48.5076 29.0527 48.2109 27.8853 48.2109ZM23.9637 56.2577V56.2145H25.0317L25.0322 56.2572C25.0427 57.1284 25.3166 57.7998 25.8541 58.276C26.3907 58.7529 27.1486 58.995 28.1351 58.995C29.0003 58.995 29.6739 58.7998 30.1636 58.4161C30.6505 58.032 30.8952 57.5057 30.8952 56.8275C30.8952 56.197 30.7224 55.7238 30.3845 55.4007C30.0444 55.0754 29.3566 54.7759 28.3149 54.5079L27.2516 54.2413C26.1055 53.9467 25.3033 53.571 24.8575 53.1096C24.4087 52.6468 24.1886 51.9964 24.1886 51.1691C24.1886 50.2505 24.5259 49.5112 25.1992 48.9556C25.8717 48.4006 26.769 48.1245 27.8853 48.1245C29.0671 48.1245 29.9973 48.4251 30.6687 49.0315C31.3407 49.6384 31.6823 50.4873 31.6977 51.5692L31.6983 51.613H30.5715L30.5707 51.5706C30.5557 50.7843 30.3106 50.1828 29.84 49.7599C29.3689 49.3365 28.7041 49.122 27.8411 49.122C27.0274 49.122 26.4016 49.305 25.961 49.6667C25.5216 50.0274 25.3003 50.5353 25.3003 51.198C25.3003 51.7044 25.4439 52.0978 25.7266 52.385C26.0125 52.6738 26.4895 52.9044 27.1659 53.0727L28.4731 53.4003C29.7672 53.7238 30.6826 54.1358 31.2134 54.6388C31.7447 55.1453 32.01 55.8401 32.01 56.7208C32.01 57.7343 31.6628 58.5378 30.9647 59.1245C30.2691 59.7104 29.3196 60 28.1229 60C26.7851 60 25.7482 59.6862 25.0185 59.0509C24.2879 58.4162 23.9251 57.5073 23.9251 56.3323V56.2577H23.9637Z" fill="#777777"/>
<path d="M53.3999 59.646V49.3744H49.9277V48.4557H57.9278V49.3744H54.4557V59.646H53.3999Z" fill="#777777"/>
<path fill-rule="evenodd" clip-rule="evenodd" d="M49.8845 48.4125H57.971V49.4175H54.4989V59.6892H53.3567V49.4175H49.8845V48.4125ZM49.9709 48.4988V49.3312H53.4431V59.6028H54.4125V49.3312H57.8846V48.4988H49.9709Z" fill="#777777"/>
<path d="M76.3565 48.4557H77.3819V55.5051C77.3819 56.7467 77.6363 57.6456 78.1451 58.2017C78.654 58.7593 79.4737 59.0381 80.6026 59.0381C81.7315 59.0381 82.5542 58.7593 83.0677 58.2017C83.5811 57.6441 83.8386 56.7452 83.8386 55.5051V48.4557H84.8639V55.6498C84.8639 57.0728 84.5074 58.1469 83.7929 58.8705C83.0783 59.5942 82.0149 59.9568 80.6026 59.9568C79.1949 59.9568 78.1345 59.5957 77.423 58.8736C76.7115 58.1514 76.3565 57.0774 76.3565 55.6483V48.4557Z" fill="#777777"/>
<path fill-rule="evenodd" clip-rule="evenodd" d="M76.3565 48.4557H76.3133V55.6483C76.3133 57.084 76.67 58.1708 77.3922 58.9039C78.1146 59.6371 79.1879 60 80.6026 60C82.0219 60 83.0982 59.6355 83.8236 58.9009C84.5489 58.1663 84.9071 57.0795 84.9071 55.6498V48.4125H83.7954V55.5051C83.7954 56.7408 83.5386 57.6265 83.0359 58.1725C82.534 58.7176 81.7254 58.995 80.6026 58.995C79.4798 58.995 78.6744 58.7176 78.177 58.1726C77.6789 57.6283 77.425 56.7425 77.425 55.5051V48.4125H76.3565V48.4557ZM77.3387 48.4988H76.3997V55.6483C76.3997 57.0707 76.753 58.132 77.4537 58.8433C78.1544 59.5544 79.2018 59.9136 80.6026 59.9136C82.0079 59.9136 83.0584 59.5529 83.7621 58.8402C84.466 58.1274 84.8207 57.066 84.8207 55.6498V48.4988H83.8818V55.5051C83.8818 56.7496 83.6237 57.6616 83.0994 58.231C82.5745 58.801 81.7377 59.0813 80.6026 59.0813C79.4676 59.0813 78.6336 58.8011 78.1132 58.2308C77.5937 57.663 77.3387 56.7509 77.3387 55.5051V48.4988Z" fill="#777777"/>
<path d="M107.016 48.4557H107.776C108.698 48.4557 109.39 48.5044 109.85 48.6004C110.31 48.6964 110.708 48.8518 111.043 49.0636C111.731 49.4993 112.257 50.1407 112.62 50.9893C112.982 51.8379 113.164 52.8526 113.164 54.0318C113.164 55.3024 112.965 56.3719 112.571 57.2373C112.176 58.1027 111.591 58.7471 110.816 59.1661C110.491 59.3383 110.094 59.4617 109.623 59.5348C109.152 59.6079 108.433 59.6445 107.466 59.6445H104.388V48.4542H107.016V48.4557ZM105.412 58.7258H107.577C108.422 58.7258 109.041 58.6938 109.431 58.6314C109.821 58.5674 110.145 58.4607 110.403 58.3084C110.97 57.9686 111.393 57.4506 111.672 56.7543C111.951 56.0581 112.089 55.1607 112.089 54.0608C112.089 53.0126 111.955 52.1396 111.687 51.4433C111.419 50.7471 111.018 50.2245 110.487 49.8741C110.212 49.6913 109.877 49.5633 109.48 49.4871C109.082 49.4109 108.41 49.3728 107.462 49.3728H105.412V58.7258Z" fill="#777777"/>
<path fill-rule="evenodd" clip-rule="evenodd" d="M104.345 48.411H107.059V48.4125H107.776C108.699 48.4125 109.394 48.4612 109.859 48.5581C110.323 48.655 110.726 48.8121 111.066 49.0271C111.763 49.4681 112.294 50.1168 112.659 50.9723C113.025 51.8276 113.207 52.8483 113.207 54.0318C113.207 55.3066 113.008 56.3827 112.61 57.2552C112.212 58.1284 111.621 58.7803 110.836 59.2041C110.507 59.3791 110.104 59.5038 109.629 59.5775C109.155 59.6511 108.433 59.6877 107.466 59.6877H104.345V48.411ZM106.973 48.4973H104.431V59.6013H107.466C108.433 59.6013 109.149 59.5647 109.616 59.4921C110.083 59.4195 110.476 59.2974 110.795 59.128C111.562 58.7139 112.141 58.0769 112.532 57.2194C112.923 56.3612 113.12 55.2982 113.12 54.0318C113.12 52.8569 112.94 51.8483 112.58 51.0063C112.22 50.1646 111.7 49.5305 111.02 49.1001C110.69 48.8915 110.297 48.7378 109.841 48.6427C109.385 48.5476 108.697 48.4988 107.776 48.4988H106.973V48.4973ZM105.369 49.3297H107.462C108.41 49.3297 109.086 49.3677 109.488 49.4447C109.89 49.5217 110.23 49.6514 110.511 49.8381C111.051 50.1942 111.457 50.7246 111.728 51.4278C111.998 52.1306 112.133 53.0092 112.133 54.0608C112.133 55.1639 111.994 56.0672 111.712 56.7704C111.43 57.4742 111.001 58.0002 110.425 58.3454C110.162 58.5013 109.831 58.6094 109.438 58.674C109.044 58.737 108.423 58.769 107.577 58.769H105.369V49.3297ZM105.455 49.416V58.6826H107.577C108.422 58.6826 109.038 58.6506 109.424 58.5887C109.81 58.5253 110.129 58.42 110.381 58.2712C110.938 57.937 111.356 57.4269 111.632 56.7383C111.908 56.049 112.046 55.1576 112.046 54.0608C112.046 53.0159 111.913 52.1486 111.647 51.4588C111.381 50.7695 110.986 50.2548 110.463 49.9101C110.195 49.7312 109.865 49.6049 109.471 49.5295C109.078 49.4542 108.41 49.416 107.462 49.416H105.455Z" fill="#777777"/>
<path d="M133.459 48.4557H132.403V59.646H133.459V48.4557Z" fill="#777777"/>
<path fill-rule="evenodd" clip-rule="evenodd" d="M132.36 48.4125H133.502V59.6892H132.36V48.4125ZM132.446 48.4988V59.6028H133.415V48.4988H132.446Z" fill="#777777"/>
<path d="M152.654 54.0623C152.654 52.2493 153.114 50.8126 154.037 49.7552C154.959 48.6964 156.205 48.1677 157.774 48.1677C159.35 48.1677 160.599 48.6964 161.524 49.7552C162.448 50.8141 162.91 52.2493 162.91 54.0623C162.91 55.8753 162.448 57.312 161.524 58.3693C160.599 59.4282 159.35 59.9568 157.774 59.9568C156.205 59.9568 154.959 59.4266 154.037 58.3693C153.115 57.3105 152.654 55.8753 152.654 54.0623ZM153.717 54.0623C153.717 55.5919 154.081 56.8031 154.811 57.6974C155.541 58.5917 156.528 59.0381 157.774 59.0381C159.025 59.0381 160.018 58.5917 160.753 57.7005C161.487 56.8092 161.854 55.5965 161.854 54.0623C161.854 52.522 161.487 51.3047 160.753 50.4088C160.018 49.513 159.025 49.0636 157.774 49.0636C156.543 49.0636 155.56 49.516 154.823 50.4195C154.086 51.323 153.717 52.5372 153.717 54.0623Z" fill="#777777"/>
<path fill-rule="evenodd" clip-rule="evenodd" d="M157.774 48.2109C156.216 48.2109 154.982 48.7354 154.07 49.7836C153.155 50.831 152.697 52.2566 152.697 54.0623C152.697 55.8679 153.156 57.292 154.07 58.3409C154.982 59.3877 156.216 59.9136 157.774 59.9136C159.339 59.9136 160.576 59.3892 161.491 58.3409C162.407 57.2935 162.867 55.868 162.867 54.0623C162.867 52.2566 162.407 50.8326 161.491 49.7836C160.576 48.7354 159.339 48.2109 157.774 48.2109ZM154.004 49.7268C154.935 48.6574 156.194 48.1245 157.774 48.1245C159.36 48.1245 160.622 48.6574 161.556 49.7268C162.49 50.7956 162.953 52.2419 162.953 54.0623C162.953 55.8826 162.49 57.3304 161.556 58.3977C160.622 59.4672 159.36 60 157.774 60C156.194 60 154.935 59.4656 154.004 58.3977C153.074 57.3289 152.61 55.8826 152.61 54.0623C152.61 52.242 153.072 50.7941 154.004 49.7268ZM154.79 50.3922C155.536 49.4781 156.531 49.0204 157.774 49.0204C159.037 49.0204 160.043 49.4748 160.786 50.3815C161.529 51.2872 161.897 52.5153 161.897 54.0623C161.897 55.6032 161.529 56.8267 160.786 57.7279C160.043 58.6301 159.037 59.0813 157.774 59.0813C156.516 59.0813 155.516 58.63 154.777 57.7247C154.04 56.8205 153.674 55.5986 153.674 54.0623C153.674 52.5304 154.044 51.3055 154.79 50.3922ZM157.774 49.1067C156.555 49.1067 155.585 49.554 154.857 50.4468C154.127 51.3405 153.76 52.5441 153.76 54.0623C153.76 55.5852 154.123 56.7857 154.844 57.6701C155.565 58.5535 156.54 58.995 157.774 58.995C159.013 58.995 159.994 58.5534 160.719 57.673C161.445 56.7917 161.811 55.5898 161.811 54.0623C161.811 52.5287 161.445 51.3221 160.719 50.4362C159.994 49.5512 159.013 49.1067 157.774 49.1067Z" fill="#777777"/>
<path d="M0 40.4254V18.3053C0 18.1864 0.0959824 18.0889 0.216342 18.0889H2.46508C2.58392 18.0889 2.68142 18.1864 2.68142 18.3053V40.4254C2.68142 40.5443 2.58544 40.6418 2.46508 40.6418H0.216342C0.0959824 40.6418 0 40.5458 0 40.4254Z" fill="#777777"/>
<path d="M8.13264 40.4254V17.7522C8.13264 17.5541 8.37488 17.4612 8.50743 17.6059L24.2547 34.8097C24.3872 34.9544 24.6295 34.86 24.6295 34.6634V18.3052C24.6295 18.1864 24.7255 18.0889 24.8458 18.0889H26.9711C27.09 18.0889 27.1875 18.1864 27.1875 18.3052V40.9678C27.1875 41.1643 26.9468 41.2588 26.8127 41.1141L11.0654 24.1008C10.9314 23.956 10.6907 24.0505 10.6907 24.247V40.4239C10.6907 40.5427 10.5947 40.6403 10.4743 40.6403H8.34899C8.23015 40.6418 8.13264 40.5458 8.13264 40.4254Z" fill="#777777"/>
<path d="M49.0791 40.4254V24.2486C49.0791 24.052 48.8384 23.9576 48.7044 24.1023L32.9556 41.1141C32.8215 41.2588 32.5808 41.1643 32.5808 40.9678V18.3052C32.5808 18.1864 32.6783 18.0889 32.7971 18.0889H34.9225C35.0413 18.0889 35.1388 18.1864 35.1388 18.3052V34.6634C35.1388 34.86 35.381 34.9544 35.5136 34.8097L51.2608 17.6059C51.3934 17.4612 51.6356 17.5541 51.6356 17.7522V40.4254C51.6356 40.5443 51.5397 40.6418 51.4193 40.6418H49.294C49.1751 40.6418 49.0791 40.5458 49.0791 40.4254Z" fill="#777777"/>
<path d="M63.2663 41.0272L54.0519 18.3875C53.994 18.2458 54.0992 18.0904 54.2515 18.0904H56.6938C56.7836 18.0904 56.8629 18.1453 56.8964 18.2291L63.2648 34.8173C63.3364 35.0017 63.5969 35.0017 63.6685 34.8173L70.0079 18.2306C70.0399 18.1468 70.1207 18.092 70.209 18.092H72.636C72.7899 18.092 72.8935 18.2474 72.8356 18.389L63.667 41.0288C63.5938 41.2055 63.3394 41.2055 63.2663 41.0272Z" fill="#777777"/>
<path d="M75.3281 40.4254V18.3053C75.3281 18.1864 75.4241 18.0889 75.5445 18.0889H87.0045C87.1233 18.0889 87.2208 18.1864 87.2208 18.3053V20.3224C87.2208 20.4412 87.1248 20.5388 87.0045 20.5388H78.2244C78.1055 20.5388 78.008 20.6347 78.008 20.7551V26.7929C78.008 26.9117 78.1055 27.0092 78.2244 27.0092H87.0045C87.1233 27.0092 87.2208 27.1052 87.2208 27.2255V29.2884C87.2208 29.4072 87.1248 29.5048 87.0045 29.5048H78.2244C78.1055 29.5048 78.008 29.6023 78.008 29.7211V37.9314C78.008 38.0503 78.1055 38.1478 78.2244 38.1478H87.0045C87.1233 38.1478 87.2208 38.2437 87.2208 38.3641V40.427C87.2208 40.5458 87.1248 40.6433 87.0045 40.6433H75.5445C75.4256 40.6418 75.3281 40.5458 75.3281 40.4254Z" fill="#777777"/>
<path d="M91.7655 40.4254V17.7522C91.7655 17.5541 92.0078 17.4612 92.1403 17.6059L107.888 34.8097C108.02 34.9544 108.262 34.86 108.262 34.6634V18.3052C108.262 18.1864 108.36 18.0889 108.479 18.0889H110.604C110.723 18.0889 110.82 18.1864 110.82 18.3052V40.9678C110.82 41.1643 110.58 41.2588 110.446 41.1141L94.6968 24.1008C94.5627 23.956 94.322 24.0505 94.322 24.247V40.4239C94.322 40.5427 94.226 40.6403 94.1057 40.6403H91.9803C91.8615 40.6418 91.7655 40.5458 91.7655 40.4254Z" fill="#777777"/>
<path d="M120.157 40.4254V20.8633C120.157 20.7444 120.061 20.6469 119.94 20.6469H113.995C113.877 20.6469 113.779 20.5509 113.779 20.4306V18.3053C113.779 18.1864 113.877 18.0889 113.995 18.0889H128.999C129.118 18.0889 129.215 18.1864 129.215 18.3053V20.4306C129.215 20.5494 129.12 20.6469 128.999 20.6469H123.085C122.966 20.6469 122.868 20.7429 122.868 20.8633V40.427C122.868 40.5458 122.772 40.6433 122.652 40.6433H120.373C120.253 40.6418 120.157 40.5458 120.157 40.4254Z" fill="#777777"/>
<path d="M132.234 40.4254V18.3053C132.234 18.1864 132.331 18.0889 132.45 18.0889H134.699C134.818 18.0889 134.915 18.1864 134.915 18.3053V40.4254C134.915 40.5443 134.819 40.6418 134.699 40.6418H132.45C132.331 40.6418 132.234 40.5458 132.234 40.4254Z" fill="#777777"/>
<path d="M163.443 29.4118C163.443 31.0237 163.145 32.5442 162.549 33.9717C161.953 35.3993 161.085 36.6669 159.944 37.776C158.803 38.8851 157.491 39.7398 156.005 40.3401C154.521 40.9419 152.983 41.242 151.389 41.242C149.795 41.242 148.263 40.9419 146.788 40.3401C145.313 39.7398 144.006 38.8836 142.865 37.776C141.715 36.6562 140.839 35.3841 140.237 33.955C139.635 32.5274 139.335 31.013 139.335 29.4103C139.335 27.7984 139.635 26.2748 140.237 24.8427C140.839 23.4106 141.715 22.1354 142.865 21.0156C143.995 19.9171 145.301 19.0701 146.78 18.4744C148.261 17.8787 149.797 17.5816 151.389 17.5816C152.992 17.5816 154.535 17.8802 156.021 18.4744C157.506 19.0701 158.813 19.9171 159.944 21.0156C161.085 22.1247 161.952 23.3954 162.549 24.829C163.146 26.2611 163.443 27.7892 163.443 29.4118ZM151.389 38.716C152.622 38.716 153.796 38.4829 154.911 38.0152C156.027 37.5475 157.032 36.868 157.925 35.9737C158.809 35.09 159.482 34.0891 159.944 32.9693C160.407 31.8495 160.637 30.6642 160.637 29.4103C160.637 28.1473 160.402 26.9452 159.936 25.8056C159.468 24.666 158.798 23.6589 157.925 22.786C157.041 21.9038 156.042 21.2304 154.927 20.7688C153.811 20.3072 152.632 20.0756 151.389 20.0756C150.135 20.0756 148.947 20.3072 147.827 20.7688C146.707 21.2304 145.714 21.9038 144.852 22.786C143.968 23.6803 143.294 24.6919 142.831 25.8208C142.368 26.9513 142.138 28.1473 142.138 29.4103C142.138 30.6642 142.367 31.8434 142.824 32.9525C143.281 34.0616 143.957 35.0687 144.852 35.9721C145.757 36.8756 146.761 37.5597 147.865 38.0213C148.971 38.4844 150.146 38.716 151.389 38.716Z" fill="#777777"/>
<path d="M167.819 40.4254V17.7522C167.819 17.5541 168.061 17.4612 168.194 17.6059L183.941 34.8097C184.073 34.9544 184.316 34.86 184.316 34.6634V18.3052C184.316 18.1864 184.412 18.0889 184.532 18.0889H186.657C186.776 18.0889 186.874 18.1864 186.874 18.3052V40.9678C186.874 41.1643 186.633 41.2588 186.499 41.1141L170.75 24.1008C170.616 23.956 170.375 24.0505 170.375 24.247V40.4239C170.375 40.5427 170.279 40.6403 170.159 40.6403H168.034C167.915 40.6418 167.819 40.5458 167.819 40.4254Z" fill="#777777"/>
<path d="M33.0714 18.0874H26.7395V18.9192H33.0714V18.0874Z" fill="#777777"/>
<path d="M32.6402 16.7299H27.1722V17.5618H32.6402V16.7299Z" fill="#777777"/>
<path d="M32.6402 15.3709H27.1722V16.2028H32.6402V15.3709Z" fill="#777777"/>
<path d="M33.9977 14.6945H29.616V13.689C29.616 12.9241 29.7013 12.8739 28.6821 11.6687C28.257 11.1599 25.1505 7.55978 25.3029 5.81076C25.3714 5.14802 25.8468 0.268142 32.0613 0C33.725 0 36.3744 0.767862 37.9543 4.09526C39.5342 7.42266 35.6964 10.2762 34.473 12.2462C33.9809 13.011 33.9809 13.3736 33.9977 14.6945Z" fill="#777777"/>
<path d="M32.5945 14.9078H27.1448V13.3385C27.1448 12.6377 26.9833 12.1532 25.504 10.7424C23.6361 8.9599 23.0176 7.10119 23.5584 4.89359C24.1359 2.53668 26.3663 0 29.904 0C32.9236 0 35.2394 1.71855 36.0971 4.59955L36.1139 4.65744C36.4871 5.95854 37.0493 7.92695 34.406 10.4484C34.2552 10.5992 34.0891 10.7501 33.9261 10.8994C33.2374 11.5255 32.692 12.0207 32.6296 13.1192C32.6311 13.6859 32.6082 14.4446 32.6082 14.4446L32.5945 14.9078ZM28.1031 13.9495H31.6621C31.6682 13.695 31.6728 13.3736 31.6728 13.0902C31.7581 11.5743 32.5686 10.8384 33.2832 10.1894C33.4355 10.0508 33.5894 9.91059 33.7387 9.76281C35.9707 7.63291 35.5395 6.12918 35.1937 4.92102L35.1784 4.86769C34.9072 3.9551 33.7174 0.958309 29.9055 0.958309C26.8843 0.958309 24.9799 3.11563 24.4893 5.1206C24.0323 6.98541 24.5503 8.50589 26.1667 10.0492C27.6689 11.4829 28.1031 12.2218 28.1031 13.3385V13.9495Z" fill="#777777"/>
<path d="M194.869 22.6047L193.381 19.1615L192.779 22.4173H192.223L193.195 17.4368L194.871 21.3996L196.547 17.4368L197.519 22.4173H196.962L196.353 19.1615L194.869 22.6047ZM190.079 22.4157V18.1666H188.725V17.6242H192.002V18.1666H190.655V22.4157H190.079Z" fill="#777777"/>
<path fill-rule="evenodd" clip-rule="evenodd" d="M193.189 17.3808L194.871 21.3573L196.552 17.3808L197.539 22.4337H196.949L196.347 19.2175L194.869 22.6462L193.387 19.2176L192.793 22.4337H192.203L193.189 17.3808ZM193.201 17.4929L192.243 22.4008H192.765L193.374 19.1053L194.869 22.5631L196.359 19.1054L196.976 22.4008H197.499L196.541 17.4929L194.871 21.4418L193.201 17.4929ZM188.708 17.6078H192.018V18.1831H190.672V22.4322H190.063V18.1831H188.708V17.6078ZM188.741 17.6407V18.1502H190.096V22.3993H190.639V18.1502H191.985V17.6407H188.741Z" fill="#777777"/>
</svg>
