<?xml version="1.0" standalone="no"?>
<!DOCTYPE svg PUBLIC "-//W3C//DTD SVG 1.1//EN" "http://www.w3.org/Graphics/SVG/1.1/DTD/svg11.dtd" >
<svg xmlns="http://www.w3.org/2000/svg" xmlns:xlink="http://www.w3.org/1999/xlink" version="1.1">
<metadata>
Created by FontForge 20170731 at Fri Aug 21 01:26:41 2015
 By Aleksey,,,
Copyright (c) 2013 Parachute, www.parachute.gr.  All rights reserved.
</metadata>
<defs>
<font id="PFBagueSansPro-Thin" horiz-adv-x="1105" >
  <font-face 
    font-family="PF Bague Sans Pro Thin"
    font-weight="250"
    font-stretch="normal"
    units-per-em="2048"
    panose-1="2 0 5 6 0 0 0 2 0 3"
    ascent="1536"
    descent="-512"
    x-height="907"
    cap-height="1354"
    bbox="-96 -494 1843 1759"
    underline-thickness="61"
    underline-position="-264"
    unicode-range="U+0020-FB04"
  />
<missing-glyph horiz-adv-x="748" 
d="M68 0v1365h544v-1365h-544zM136 68h408v1229h-408v-1229z" />
    <glyph glyph-name="uniFB01" unicode="fi" horiz-adv-x="925" 
d="M10 844v53l164 12v197q0 83 20 152t62.5 124t115.5 86t171 31q141 0 243 -61v-72q-118 68 -249 68q-77 0 -133.5 -25t-89.5 -70.5t-48.5 -101.5t-15.5 -125v-203h536v-909h-77v844h-459v-844h-76v844h-164z" />
    <glyph glyph-name="uniFB02" unicode="fl" horiz-adv-x="925" 
d="M10 844v51q154 12 164 12v160q0 63 9 118t35 110.5t67 94t109.5 63t158.5 24.5q140 0 229 -47v-1430h-77v1393q-73 18 -142 18q-163 0 -238 -84.5t-75 -249.5v-170h291v-63h-291v-844h-76v844h-164z" />
    <glyph glyph-name="uniFB03" unicode="ffi" horiz-adv-x="1447" 
d="M10 846v49q148 12 158 12v127q0 418 393 418q132 0 244 -45q90 90 258 90q139 0 233 -53v-72q-109 58 -233 58q-283 0 -283 -316v-207h523v-907h-76v844h-447v-844h-75v846h-461v-846h-76v846h-158zM244 907h461v201q0 156 63 244q-106 39 -205 39q-82 0 -141.5 -22.5
t-93.5 -57t-53 -90.5t-25 -109.5t-6 -126.5v-78z" />
    <glyph glyph-name="uniFB04" unicode="ffl" horiz-adv-x="1445" 
d="M10 844v51q148 12 158 12v66q0 83 8.5 147.5t34 129t68 107t114.5 69t170 26.5q136 0 254 -47q88 88 287 88q38 0 97.5 -11t98.5 -34v-1448h-75v1411q-75 16 -135 16q-320 0 -320 -331v-189h291v-63h-291v-844h-76v844h-450v-844h-76v844h-158zM244 907h450v183
q0 166 84 262q-105 39 -211 39q-83 0 -143.5 -23.5t-94.5 -60t-53.5 -94t-25.5 -111t-6 -125.5v-70z" />
    <glyph glyph-name=".notdef" horiz-adv-x="748" 
d="M68 0v1365h544v-1365h-544zM136 68h408v1229h-408v-1229z" />
    <glyph glyph-name="glyph1" horiz-adv-x="0" 
 />
    <glyph glyph-name="glyph2" horiz-adv-x="682" 
 />
    <glyph glyph-name="space" unicode=" " horiz-adv-x="491" 
 />
    <glyph glyph-name="exclam" unicode="!" horiz-adv-x="507" 
d="M190 51q0 27 18.5 46.5t45.5 19.5t46 -19.5t19 -46.5q0 -26 -18.5 -44.5t-46.5 -18.5t-46 17.5t-18 45.5zM213 1401h84q-1 -65 -2.5 -181.5t-2.5 -211.5t-1 -179l-6 -561h-58q-4 374 -8 559z" />
    <glyph glyph-name="quotedbl" unicode="&#x22;" horiz-adv-x="528" 
d="M137 969v422h68v-422h-68zM324 969v422h67l-2 -422h-65z" />
    <glyph glyph-name="numbersign" unicode="#" 
d="M84 438v51h192q5 22 24 108t35.5 161t22.5 108h-196v52h209q49 199 84 368h55l-82 -368h363l81 368h58q-28 -118 -82 -368h172v-52h-184l-84 -377h184v-51h-197l-96 -438h-55l96 438h-362l-99 -438h-55l96 438h-180zM332 489h364l82 377h-362z" />
    <glyph glyph-name="dollar" unicode="$" 
d="M139 104v78q91 -68 192.5 -99.5t194.5 -31.5q163 0 262 76t99 211q0 66 -24.5 119.5t-65.5 90t-94.5 67t-112.5 55.5t-117.5 49.5t-112 53.5t-94.5 64t-65.5 86t-24.5 113q0 77 28.5 137.5t78 97.5t110 57t131.5 24v207h66v-205q163 -7 299 -82v-82q-144 98 -322 98
q-65 0 -119 -13t-99.5 -41t-71 -79.5t-25.5 -122.5q0 -62 39.5 -111t102 -82.5t139 -65t152.5 -68t138.5 -80.5t102 -113.5t39.5 -157.5q0 -168 -105 -259t-270 -101v-213h-66v209q-102 0 -204.5 28.5t-180.5 85.5z" />
    <glyph glyph-name="percent" unicode="%" horiz-adv-x="1437" 
d="M72 1061q0 133 91.5 225t223.5 92q135 0 223 -91t88 -226q0 -134 -89 -226t-222 -92q-143 0 -229 90.5t-86 227.5zM137 1061q0 -110 68.5 -184t181.5 -74q105 0 174.5 76t69.5 182t-69.5 182t-174.5 76t-177.5 -75.5t-72.5 -182.5zM190 -35q194 282 555.5 811.5
t428.5 626.5h65q-103 -150 -448 -656.5t-535 -781.5h-66zM745 301q0 135 91 228.5t223 93.5q135 0 224 -92.5t89 -227.5q0 -133 -90 -224t-223 -91q-142 0 -228 88.5t-86 224.5zM813 303q0 -110 67.5 -184t178.5 -74q108 0 177 75.5t69 182.5q0 108 -69.5 183t-176.5 75
q-103 0 -174.5 -75.5t-71.5 -182.5z" />
    <glyph glyph-name="ampersand" unicode="&#x26;" horiz-adv-x="1366" 
d="M133 324q0 127 77.5 242.5t223.5 172.5q-63 139 -63 254q0 167 100 260t272 93q131 0 267 -52v-75q-55 27 -127.5 43t-139.5 16q-140 0 -217 -75t-77 -199q0 -173 138.5 -379.5t362.5 -393.5q142 160 205 465q39 -17 64 -32q-66 -303 -215 -476q163 -132 344 -223
q-36 -29 -62 -47q-163 83 -334 217q-170 -160 -426 -160q-179 0 -286 92.5t-107 256.5zM209 330q0 -137 93.5 -213t232.5 -76q215 0 362 137q-289 247 -432 500q-121 -44 -188.5 -141t-67.5 -207z" />
    <glyph glyph-name="quotesingle" unicode="'" horiz-adv-x="374" 
d="M154 969v422h67v-422h-67z" />
    <glyph glyph-name="parenleft" unicode="(" horiz-adv-x="577" 
d="M158 621q0 466 334 878l45 -16q-306 -409 -306 -865q0 -435 295 -858l-47 -18q-147 190 -234 421t-87 458z" />
    <glyph glyph-name="parenright" unicode=")" horiz-adv-x="577" 
d="M53 1483l45 16q334 -412 334 -878q0 -228 -87 -459t-234 -420l-48 18q297 421 297 858q0 455 -307 865z" />
    <glyph glyph-name="asterisk" unicode="*" horiz-adv-x="854" 
d="M154 969q40 20 115.5 55t107.5 51q-114 53 -223 107q25 49 39 71l206 -135q-6 90 -14 256h82l-21 -256l211 137q26 -46 41 -71l-225 -107q33 -15 109 -52t118 -56q-20 -32 -43 -74l-211 139l23 -258h-82q2 43 8 129t8 129q-40 -27 -115 -77l-93 -62z" />
    <glyph glyph-name="plus" unicode="+" 
d="M164 580v61h348v354h63v-354h345v-61h-345v-349h-63v349h-348z" />
    <glyph glyph-name="comma" unicode="," horiz-adv-x="307" 
d="M51 -285q28 94 88 283q-21 5 -34 21.5t-13 39.5q0 30 21 51t51 21q31 0 49 -21.5t18 -54.5q0 -74 -131 -342z" />
    <glyph glyph-name="hyphen" unicode="-" horiz-adv-x="759" 
d="M125 461v76h510v-76h-510z" />
    <glyph glyph-name="period" unicode="." horiz-adv-x="286" 
d="M76 57q0 28 19 48t46 20q30 0 50 -20t20 -48q0 -29 -20 -48t-50 -19q-28 0 -46.5 19t-18.5 48z" />
    <glyph glyph-name="slash" unicode="/" horiz-adv-x="512" 
d="M-66 -180q66 161 297 792t301 799h66q-68 -163 -298.5 -794t-299.5 -797h-66z" />
    <glyph glyph-name="zero" unicode="0" 
d="M84 672q0 67 5 129.5t18.5 134.5t35 132.5t58 118t83.5 97.5t115 64t150 24q85 0 154.5 -24t117.5 -64t84.5 -97.5t58 -118t34.5 -132.5t17.5 -134t4.5 -130q0 -64 -4.5 -125t-18.5 -131.5t-35.5 -130.5t-58 -117.5t-84.5 -97.5t-117 -64t-153 -24q-82 0 -149.5 23
t-115 62t-83.5 94.5t-58 115.5t-35.5 130.5t-18.5 133.5t-5 131zM162 672q0 -60 3.5 -114.5t14.5 -119t28.5 -118.5t47.5 -106t69.5 -87.5t96.5 -57.5t127 -22q71 0 130 22t99 58.5t70.5 89t48.5 106.5t29 118.5t14.5 118.5t3.5 112q0 59 -3.5 113.5t-14.5 120t-29 121
t-48.5 108.5t-70.5 90t-99 59.5t-130 22.5q-81 0 -145 -29t-105 -81t-69.5 -113.5t-42.5 -137.5t-19.5 -140t-5.5 -134z" />
    <glyph glyph-name="one" unicode="1" 
d="M211 989v84q26 17 440 281h23v-1354h-78v1231z" />
    <glyph glyph-name="two" unicode="2" 
d="M86 14q1 88 25.5 164.5t60 132.5t97.5 114.5t116.5 98t138.5 94.5q187 121 272 210t85 190q0 96 -47.5 162t-121.5 95.5t-167 29.5q-144 0 -234 -87.5t-90 -222.5q0 -59 10 -100l-81 12q-9 47 -9 103q0 160 118.5 260t287.5 100q82 0 155 -21t132.5 -62.5t94 -110
t34.5 -156.5q0 -65 -27.5 -126.5t-77 -113.5t-102.5 -92.5t-121 -81.5q-71 -43 -120 -75t-118.5 -89t-113 -109.5t-76.5 -124t-35 -145.5h805v-63h-868z" />
    <glyph glyph-name="three" unicode="3" 
d="M41 119v88q177 -158 418 -158q174 0 286.5 100.5t112.5 262.5q0 167 -112 256.5t-295 89.5q-68 0 -111 -8q-3 3 -8.5 12t-7.5 12l469 508q0 1 -1 3t-1 3h-687v64h820q0 -17 2 -25l-471 -506h20q209 0 335 -110.5t126 -294.5q0 -132 -67 -232t-174.5 -150t-237.5 -50
q-245 0 -416 135z" />
    <glyph glyph-name="four" unicode="4" 
d="M35 354v21l731 979h92l-700 -936h624v432l60 90h14v-522h191v-64h-191v-354h-74v354h-747z" />
    <glyph glyph-name="five" unicode="5" 
d="M106 119v90q67 -70 175 -116t235 -46q175 0 289.5 100.5t114.5 266.5q0 87 -31.5 155t-87 109.5t-125.5 62.5t-152 21q-173 0 -315 -82q-4 2 -12.5 4t-12.5 4q14 113 38.5 334t37.5 330h688v-62h-622l-54 -512q108 49 265 49q91 0 172.5 -25.5t146.5 -74t103 -129
t38 -182.5q0 -137 -67.5 -237t-175 -147.5t-238.5 -47.5q-252 0 -410 135z" />
    <glyph glyph-name="six" unicode="6" 
d="M96 406q0 170 123 374l342 572h84q-38 -63 -171 -284.5t-204 -344.5q1 0 3 -1t3 -1q93 110 295 110q191 0 313 -119t122 -306t-128 -305.5t-325 -118.5q-209 0 -333 116.5t-124 307.5zM172 406q0 -159 103 -261t278 -102q170 0 273.5 102.5t103.5 260.5
q0 159 -101.5 259.5t-269.5 100.5q-78 0 -147 -22.5t-123 -65.5t-85.5 -113t-31.5 -159z" />
    <glyph glyph-name="seven" unicode="7" 
d="M133 1288v64h817v-23q-81 -178 -604 -1329h-76l586 1288h-723z" />
    <glyph glyph-name="eight" unicode="8" 
d="M100 360q0 124 78.5 221t210.5 130v6q-113 37 -172 120.5t-59 186.5q0 152 111 250t286 98q168 0 281.5 -98t113.5 -250q0 -107 -64.5 -188.5t-172.5 -110.5v-4q141 -38 216 -131.5t75 -222.5q0 -170 -125 -277.5t-324 -107.5q-211 0 -333 104t-122 274zM176 367
q0 -140 99.5 -232t279.5 -92q171 0 272 93.5t101 232.5q0 138 -101.5 225.5t-271.5 87.5q-168 0 -273.5 -89t-105.5 -226zM236 1022q0 -121 89 -199t230 -78q137 0 227 78.5t90 198.5q0 121 -89 202t-228 81q-145 0 -232 -80t-87 -203z" />
    <glyph glyph-name="nine" unicode="9" 
d="M98 948q0 186 126.5 304t320.5 118q204 0 326 -116.5t122 -305.5q0 -163 -119 -366l-339 -582h-86l370 635l-6 2q-29 -35 -71 -59t-85.5 -33.5t-73.5 -13t-57 -3.5q-186 0 -307 118t-121 302zM174 948q0 -155 100.5 -254.5t264.5 -99.5q162 0 270.5 92t108.5 262
q0 157 -101 258t-272 101q-166 0 -268.5 -101.5t-102.5 -257.5z" />
    <glyph glyph-name="colon" unicode=":" horiz-adv-x="342" 
d="M102 55q0 29 19 48.5t47 19.5q31 0 50.5 -19.5t19.5 -48.5q0 -28 -20.5 -46.5t-49.5 -18.5q-28 0 -47 18.5t-19 46.5zM102 713q0 29 20 49t48 20q29 0 49.5 -20t20.5 -49q0 -28 -20.5 -47t-49.5 -19q-28 0 -48 19t-20 47z" />
    <glyph glyph-name="semicolon" unicode=";" horiz-adv-x="362" 
d="M76 -285q28 94 88 283q-21 5 -34 21.5t-13 39.5q0 30 20.5 51t50.5 21q31 0 49.5 -21.5t18.5 -54.5q0 -74 -131 -342zM127 713q0 29 20 49t48 20q29 0 49 -20t20 -49q0 -27 -20.5 -46.5t-48.5 -19.5t-48 19t-20 47z" />
    <glyph glyph-name="less" unicode="&#x3c;" 
d="M156 602v16l772 402v-74l-652 -336l652 -338v-73z" />
    <glyph glyph-name="equal" unicode="=" 
d="M152 432v62h772v-62h-772zM152 725v61h772v-61h-772z" />
    <glyph glyph-name="greater" unicode="&#x3e;" 
d="M156 199v73l649 338l-649 336v74l772 -402v-16z" />
    <glyph glyph-name="question" unicode="?" horiz-adv-x="987" 
d="M133 1262v77q147 66 307 66q82 0 154 -23t128.5 -66t89 -111t32.5 -152q0 -65 -25.5 -126t-66 -109.5t-89.5 -94.5t-98.5 -87.5t-90 -80.5t-66 -82.5t-25.5 -85.5q0 -56 35 -113q-9 -2 -76 -22q-37 75 -37 135q0 51 25.5 100.5t66 91t89 83t97.5 85t89.5 88t66 99.5
t25.5 113q0 130 -88 208t-240 78q-155 0 -303 -71zM328 51q0 27 17.5 45.5t45.5 18.5q27 0 45.5 -18.5t18.5 -45.5q0 -28 -18 -45.5t-46 -17.5q-29 0 -46 17t-17 46z" />
    <glyph glyph-name="at" unicode="@" horiz-adv-x="1773" 
d="M174 625q0 206 99 376.5t268.5 267.5t371.5 97q149 0 276.5 -50t217 -137t140 -208.5t50.5 -261.5q0 -179 -88.5 -297.5t-224.5 -118.5q-87 0 -134.5 46t-53.5 124q-2 2 -6 2q-49 -81 -123 -121.5t-158 -40.5q-124 0 -197 58t-73 145q0 246 364 246h191v47
q0 100 -56 156.5t-174 56.5q-117 0 -241 -72v70q54 31 121.5 47t123.5 16q295 0 295 -285v-276q0 -79 30 -116.5t95 -37.5q109 0 174.5 102t65.5 253q0 167 -79 301t-219 210t-315 76q-183 0 -337 -88t-244 -243.5t-90 -343.5q0 -294 183.5 -476t477.5 -182q254 0 445 133
v-84q-192 -114 -445 -114q-216 0 -382.5 90.5t-257.5 255t-91 377.5zM608 512q0 -73 56 -113.5t143 -40.5q53 0 102 16.5t91.5 49.5t68 91t25.5 134v45h-187q-299 0 -299 -182z" />
    <glyph glyph-name="A" unicode="A" horiz-adv-x="1226" 
d="M31 0l571 1358h21l571 -1358h-82l-141 338h-721l-141 -338h-78zM279 406h663l-334 798z" />
    <glyph glyph-name="B" unicode="B" horiz-adv-x="1224" 
d="M174 0v1352h461q181 0 288 -85.5t107 -240.5q0 -92 -52.5 -175.5t-152.5 -119.5q80 -20 138.5 -60t89.5 -90t45 -99.5t14 -98.5q0 -177 -119 -280t-305 -103h-514zM252 72h426q92 0 162 25t111.5 69.5t62 100t20.5 120.5q0 127 -95 215t-267 88h-420v-618zM252 760h405
q128 0 212.5 74t84.5 186q0 117 -81.5 189.5t-227.5 72.5h-393v-522z" />
    <glyph glyph-name="C" unicode="C" horiz-adv-x="1241" 
d="M113 670q0 151 54.5 283t147.5 224.5t221.5 145.5t272.5 53q214 0 328 -57v-78q-141 66 -322 66q-171 0 -311.5 -78t-224.5 -224.5t-84 -334.5q0 -180 70 -318.5t210 -218.5t332 -80q91 0 193 25.5t190 75.5v-78q-75 -45 -184.5 -69.5t-204.5 -24.5q-131 0 -242 34
t-192.5 96t-139 147.5t-86 189.5t-28.5 221z" />
    <glyph glyph-name="D" unicode="D" horiz-adv-x="1372" 
d="M174 0v1352h408q316 0 497 -180t181 -492q0 -305 -176.5 -492.5t-485.5 -187.5h-424zM252 72h342q285 0 435.5 166t150.5 440q0 133 -37.5 243t-110 191t-187.5 125.5t-263 44.5h-330v-1210z" />
    <glyph glyph-name="E" unicode="E" horiz-adv-x="1122" 
d="M174 0v1352h830v-70h-752v-528h700v-70h-700v-612h807v-72h-885z" />
    <glyph glyph-name="F" unicode="F" horiz-adv-x="1046" 
d="M174 0v1354h842v-72h-764v-573h696v-72h-696v-637h-78z" />
    <glyph glyph-name="G" unicode="G" horiz-adv-x="1347" 
d="M113 668q0 150 54 282t147.5 225.5t223 147t275.5 53.5q225 0 352 -71v-80q-143 78 -350 78q-172 0 -312.5 -77.5t-224 -223.5t-83.5 -334q0 -130 39 -241.5t113 -195t189.5 -131t260.5 -47.5q186 0 340 64v542h75v-596q-168 -79 -434 -79q-158 0 -286 54.5t-210 148.5
t-125.5 217.5t-43.5 263.5z" />
    <glyph glyph-name="H" unicode="H" horiz-adv-x="1341" 
d="M174 0v1354h78v-598h838v598h77v-1354h-77v684h-838v-684h-78z" />
    <glyph glyph-name="I" unicode="I" horiz-adv-x="466" 
d="M195 0v1354h77v-1354h-77z" />
    <glyph glyph-name="J" unicode="J" horiz-adv-x="888" 
d="M20 47v82q55 -34 135 -55t140 -21q81 0 142 21t98.5 55.5t60 86t31 105t8.5 119.5v912h78v-846q0 -91 -8 -160t-34 -141t-70.5 -118t-122.5 -75.5t-185 -29.5q-65 0 -143 17.5t-130 47.5z" />
    <glyph glyph-name="K" unicode="K" horiz-adv-x="1136" 
d="M174 0v1352h78v-641l706 641h99q-119 -107 -354.5 -323.5t-354.5 -323.5l768 -705h-110l-754 694v-694h-78z" />
    <glyph glyph-name="L" unicode="L" horiz-adv-x="1032" 
d="M174 0v1352h78v-1280h760v-72h-838z" />
    <glyph glyph-name="M" unicode="M" horiz-adv-x="1638" 
d="M174 0v1356h21l626 -891l621 891h22v-1356h-75q0 192 1 578.5t1 580.5q-3 0 -5 2q-103 -150 -296 -426t-261 -375h-20l-559 791q0 -2 -2 -4v-1147h-74z" />
    <glyph glyph-name="N" unicode="N" horiz-adv-x="1441" 
d="M174 0v1360h21l991 -1188h4v1180h76v-1356h-21l-995 1190v-1186h-76z" />
    <glyph glyph-name="O" unicode="O" horiz-adv-x="1603" 
d="M113 676q0 143 54 272t146 222t220 147.5t270 54.5q195 0 352.5 -92.5t245.5 -251.5t88 -352t-88.5 -352t-246 -250.5t-351.5 -91.5q-206 0 -364.5 92t-242 249t-83.5 353zM195 676q0 -176 74.5 -317.5t214 -224.5t319.5 -83q175 0 315 84.5t216.5 227t76.5 313.5
q0 172 -77 314.5t-217 226t-314 83.5t-313.5 -83t-217 -225.5t-77.5 -315.5z" />
    <glyph glyph-name="P" unicode="P" horiz-adv-x="1132" 
d="M172 0v1352h428q113 0 204 -35.5t148 -96t87 -137t30 -161.5q0 -103 -38.5 -187t-104 -138t-149.5 -83t-177 -29h-348v-485h-80zM252 551h338q182 0 288.5 105t106.5 266q0 71 -25 135t-73.5 116t-129.5 82.5t-184 30.5h-321v-735z" />
    <glyph glyph-name="Q" unicode="Q" horiz-adv-x="1599" 
d="M113 682q0 143 54 271.5t146 220t220 145t270 53.5q195 0 352.5 -92.5t245.5 -251.5t88 -352q0 -255 -153.5 -445t-397.5 -231q-1 0 -2 -2t-2 -2q92 -22 277.5 -63t277.5 -62l-27 -84l-727 199q-188 13 -330 108t-217 248t-75 340zM195 676q0 -176 74.5 -317.5
t214 -224.5t319.5 -83q175 0 315 84.5t216.5 227t76.5 313.5q0 172 -77 314.5t-217 226t-314 83.5t-313.5 -83t-217 -225.5t-77.5 -315.5z" />
    <glyph glyph-name="R" unicode="R" horiz-adv-x="1175" 
d="M172 0v1352h451q125 0 227 -48.5t163.5 -143t61.5 -218.5q0 -157 -122.5 -275.5t-325.5 -138.5l499 -528h-108q-446 482 -518 561v19q121 2 217.5 33t156 82t90.5 113.5t31 131.5q0 156 -106.5 249t-276.5 93h-360v-1282h-80z" />
    <glyph glyph-name="S" unicode="S" horiz-adv-x="993" 
d="M72 102v86q179 -135 397 -135q77 0 142.5 16.5t118 50t82.5 90t30 130.5q0 85 -40.5 150t-105 105t-142.5 73.5t-156.5 65.5t-143 70t-105 99t-40.5 141q0 83 34.5 148t91.5 103t124.5 57.5t140.5 19.5q190 0 342 -88v-84q-76 52 -164.5 76t-167.5 24q-64 0 -118.5 -13
t-102 -41t-74.5 -78.5t-27 -118.5q0 -52 25 -94.5t67.5 -72.5t97.5 -56.5t116 -50.5t122 -50t116 -60t97.5 -75.5t67.5 -102t25 -133.5q0 -95 -35.5 -168t-97.5 -116.5t-140 -65.5t-170 -22q-239 0 -407 120z" />
    <glyph glyph-name="T" unicode="T" horiz-adv-x="1085" 
d="M31 1282v70h1022v-70h-469v-1282h-80v1282h-473z" />
    <glyph glyph-name="U" unicode="U" horiz-adv-x="1374" 
d="M174 502v850h76v-840q0 -101 25 -183t76.5 -144.5t136.5 -97t198 -34.5q112 0 197 33.5t136.5 95.5t77 143.5t25.5 182.5v844h78v-852q0 -235 -132.5 -376.5t-381.5 -141.5q-252 0 -382 138.5t-130 381.5z" />
    <glyph glyph-name="V" unicode="V" horiz-adv-x="1155" 
d="M20 1350h80l480 -1188h6l471 1188h76q-64 -162 -541 -1352h-21z" />
    <glyph glyph-name="W" unicode="W" horiz-adv-x="1810" 
d="M20 1350h78q93 -263 416 -1162h6l375 1164h18q47 -146 177.5 -545.5t199.5 -618.5h8q230 650 414 1162h78l-492 -1352h-16l-377 1159h-4l-377 -1159h-18q-380 1053 -486 1352z" />
    <glyph glyph-name="X" unicode="X" horiz-adv-x="1198" 
d="M20 0l502 698l-463 654h86l455 -635l455 635h86l-467 -652l504 -700h-91l-487 680l-494 -680h-86z" />
    <glyph glyph-name="Y" unicode="Y" horiz-adv-x="1101" 
d="M20 1352h89q152 -231 452 -697h6l428 697h84q-90 -144 -254 -410t-223 -362v-580h-78v580z" />
    <glyph glyph-name="Z" unicode="Z" horiz-adv-x="1024" 
d="M41 0v12l807 1270h-729v70h850v-17q-133 -211 -401.5 -632.5t-401.5 -632.5h817v-70h-942z" />
    <glyph glyph-name="bracketleft" unicode="[" horiz-adv-x="499" 
d="M154 -240v1733h284v-57h-215v-1616h215v-60h-284z" />
    <glyph glyph-name="backslash" unicode="\" horiz-adv-x="512" 
d="M-66 1411h66q70 -168 301 -799t297 -792h-63q-72 170 -303.5 801.5t-297.5 789.5z" />
    <glyph glyph-name="bracketright" unicode="]" horiz-adv-x="499" 
d="M61 -180h218v1616h-218v57h285v-1733h-285v60z" />
    <glyph glyph-name="asciicircum" unicode="^" horiz-adv-x="942" 
d="M51 717l408 633h28l404 -633h-76l-342 540l-350 -540h-72z" />
    <glyph glyph-name="underscore" unicode="_" horiz-adv-x="1044" 
d="M10 -168h1024v-51h-1024v51z" />
    <glyph glyph-name="grave" unicode="`" horiz-adv-x="940" 
d="M231 1376l86 27l236 -301l-64 -2z" />
    <glyph glyph-name="a" unicode="a" horiz-adv-x="1007" 
d="M94 231q0 297 430 297h252v64q0 127 -71 198.5t-218 71.5q-151 0 -299 -88v72q64 40 150 61t154 21q360 0 360 -346v-582h-59l-15 195q-1 0 -3 1t-3 1q-43 -110 -146 -162.5t-225 -52.5q-80 0 -141 21.5t-96 58t-52.5 79.5t-17.5 90zM172 238q0 -93 70 -143t176 -50
q68 0 129 21t114 63.5t84 116.5t31 170v53h-260q-344 0 -344 -231z" />
    <glyph glyph-name="b" unicode="b" horiz-adv-x="1161" 
d="M133 0v1454h78v-754h4q51 106 154 167t229 61q209 0 334 -133.5t125 -339.5q0 -200 -132 -335.5t-331 -135.5q-128 0 -231 59t-148 162l-6 -4l-12 -201h-64zM209 455q0 -176 106 -292t277 -116q170 0 278.5 118t108.5 290q0 174 -105 290.5t-282 116.5
q-174 0 -278.5 -116.5t-104.5 -290.5z" />
    <glyph glyph-name="c" unicode="c" horiz-adv-x="878" 
d="M102 446q0 206 134 344t335 138q123 0 220 -39v-74q-86 47 -211 47q-170 0 -285 -115t-115 -301q0 -177 106 -288t289 -111q148 0 252 68v-74q-106 -59 -264 -59q-147 0 -253 62t-157 165.5t-51 236.5z" />
    <glyph glyph-name="d" unicode="d" horiz-adv-x="1155" 
d="M102 457q0 198 132 334.5t331 136.5q127 0 228 -61.5t149 -164.5l6 5v749h74v-1456h-61l-13 209h-4q-52 -107 -153.5 -167t-225.5 -60q-211 0 -337 133.5t-126 341.5zM180 457q0 -176 105.5 -293t281.5 -117q173 0 278 116.5t105 293.5q0 173 -106 289t-277 116
t-279 -117t-108 -288z" />
    <glyph glyph-name="e" unicode="e" horiz-adv-x="1058" 
d="M102 457q0 199 126 335t313 136q129 0 224 -62t142 -164t47 -229v-37h-774v-15q0 -92 44 -174q48 -89 140.5 -144.5t206.5 -55.5q195 0 344 115v-78q-137 -102 -342 -102q-217 0 -344 128.5t-127 346.5zM182 500h699q-13 161 -98.5 259.5t-239.5 98.5q-150 0 -250 -100
t-111 -258z" />
    <glyph glyph-name="f" unicode="f" horiz-adv-x="606" 
d="M10 844v49l185 16v205q0 64 8 116t29.5 101t56 82t90.5 52.5t129 19.5q76 0 149 -23v-67q-69 26 -155 26q-70 0 -117.5 -23.5t-71.5 -67.5t-33.5 -94t-9.5 -116v-211h305v-65h-305v-844h-75v844h-185z" />
    <glyph glyph-name="g" unicode="g" horiz-adv-x="1005" 
d="M78 -182q0 75 43.5 146.5t118.5 117.5l-74 10q-64 9 -64 57q0 8 2 17l150 156q-115 89 -115 262q0 143 104 241.5t259 98.5q54 0 121 -19h297v-49l-207 -12q65 -39 105 -109t40 -153q0 -144 -101.5 -242t-254.5 -98q-125 0 -205 51l-115 -135l516 -62q106 -13 159.5 -58
t53.5 -138q0 -58 -31 -118t-86.5 -111.5t-144.5 -84t-194 -32.5q-83 0 -149 16t-108 42t-69.5 61t-39 71t-11.5 74zM154 -168q0 -40 14 -75t46 -67.5t93.5 -51.5t145.5 -19q90 0 165 26.5t120.5 69t70.5 91t25 96.5q0 55 -36.5 90.5t-109.5 42.5l-397 43q-61 -43 -99 -110.5
t-38 -135.5zM213 584q0 -125 77.5 -202t211.5 -77q126 0 205 80t79 197q0 118 -83.5 198t-200.5 80q-124 0 -206.5 -79.5t-82.5 -196.5z" />
    <glyph glyph-name="h" unicode="h" horiz-adv-x="1046" 
d="M133 0v1454h76v-733h4q59 105 149.5 156t192.5 51q157 0 247.5 -93.5t90.5 -269.5v-565h-78v551q0 150 -71.5 228.5t-192.5 78.5q-65 0 -124.5 -23t-108.5 -66.5t-78 -116t-29 -163.5v-489h-78z" />
    <glyph glyph-name="i" unicode="i" horiz-adv-x="421" 
d="M154 1190q0 25 17 42t40 17q25 0 41 -17t16 -42q0 -24 -15.5 -40.5t-41.5 -16.5q-25 0 -41 16t-16 41zM170 0v907h76v-907h-76z" />
    <glyph glyph-name="j" unicode="j" horiz-adv-x="387" 
d="M-96 -375q140 3 195 75t55 220v987h75v-989q0 -181 -72 -268.5t-216 -95.5zM137 1190q0 24 17.5 41.5t40.5 17.5q25 0 41 -17t16 -42q0 -24 -15.5 -40.5t-41.5 -16.5q-24 0 -41 16.5t-17 40.5z" />
    <glyph glyph-name="k" unicode="k" horiz-adv-x="901" 
d="M133 0v1454h74v-967q307 239 532 420h105l-543 -428q567 -461 590 -479h-117q-73 60 -267.5 219.5t-299.5 247.5v-467h-74z" />
    <glyph glyph-name="l" unicode="l" horiz-adv-x="378" 
d="M154 0v1456h77v-1456h-77z" />
    <glyph glyph-name="m" unicode="m" horiz-adv-x="1669" 
d="M154 0v907h59l12 -178q2 -2 6 -2q52 103 139.5 152t180.5 49q117 0 197.5 -58.5t103.5 -171.5q42 109 137 169.5t193 60.5q160 0 247 -90t87 -260v-578h-76v573q0 144 -67.5 215.5t-190.5 71.5q-57 0 -110 -22t-99 -65t-73.5 -117t-27.5 -169v-487h-75v573
q0 143 -67.5 215t-182.5 72q-130 0 -224 -97.5t-94 -275.5v-487h-75z" />
    <glyph glyph-name="n" unicode="n" horiz-adv-x="1067" 
d="M154 0v907h59l12 -184q1 0 3 -1t3 -1q58 105 150 156t194 51q157 0 247.5 -93.5t90.5 -269.5v-565h-77v551q0 149 -72 228t-193 79q-65 0 -124.5 -23t-109 -66.5t-79 -116t-29.5 -163.5v-489h-75z" />
    <glyph glyph-name="o" unicode="o" horiz-adv-x="1138" 
d="M102 455q0 198 136.5 335.5t332.5 137.5q132 0 238.5 -63t166.5 -171t60 -239t-60.5 -239.5t-167.5 -171t-237 -62.5q-214 0 -341.5 134.5t-127.5 338.5zM180 455q0 -176 107 -293t284 -117q171 0 279 119t108 291q0 171 -108.5 289t-278.5 118q-168 0 -279.5 -118.5
t-111.5 -288.5z" />
    <glyph glyph-name="p" unicode="p" horiz-adv-x="1157" 
d="M133 -430v1339h62l12 -207l8 -2q52 107 153.5 167.5t225.5 60.5q211 0 336 -133t125 -340q0 -199 -132.5 -336t-330.5 -137q-127 0 -228.5 61t-148.5 164l-8 -4v-633h-74zM207 455q0 -174 106 -291t277 -117q170 0 278.5 118t108.5 290q0 175 -105.5 291t-281.5 116
q-173 0 -278 -115.5t-105 -291.5z" />
    <glyph glyph-name="q" unicode="q" horiz-adv-x="1159" 
d="M102 453q0 201 131.5 337t331.5 136q125 0 227.5 -60.5t149.5 -163.5l6 5l13 200h65v-1337h-76v643h-6q-51 -107 -153 -169t-228 -62q-210 0 -335.5 133t-125.5 338zM180 453q0 -174 105 -291t280 -117q174 0 278.5 117t104.5 291q0 176 -105 291.5t-276 115.5
t-279 -117.5t-108 -289.5z" />
    <glyph glyph-name="r" unicode="r" horiz-adv-x="638" 
d="M154 0v907h53l12 -252q2 -2 6 -2q20 77 57 132.5t82.5 85.5t92.5 43.5t98 13.5q48 0 72 -6v-76q-39 8 -88 8q-310 0 -310 -551v-303h-75z" />
    <glyph glyph-name="s" unicode="s" horiz-adv-x="755" 
d="M51 63v78q132 -96 301 -96q51 0 95.5 9.5t81.5 30t58 56.5t21 84q0 50 -28.5 89.5t-74.5 65.5t-101 48.5t-110 46.5t-101 52t-74.5 71t-28.5 98q0 60 25 106t67 72.5t92 40t105 13.5q140 0 264 -62v-75q-130 73 -256 73q-92 0 -155.5 -38.5t-63.5 -125.5
q0 -43 28.5 -76.5t74 -57t100.5 -45t110 -46.5t100.5 -55t74 -76.5t28.5 -105.5q0 -122 -93 -189t-233 -67q-180 0 -307 81z" />
    <glyph glyph-name="t" unicode="t" horiz-adv-x="677" 
d="M51 844v51q164 12 166 12l43 273h35v-273h311v-63h-311v-580q0 -102 37.5 -155.5t134.5 -53.5q39 0 89.5 15.5t94.5 46.5v-72q-80 -59 -192 -59q-72 0 -120.5 20t-74.5 59t-36.5 86.5t-10.5 112.5v580h-166z" />
    <glyph glyph-name="u" unicode="u" horiz-adv-x="1042" 
d="M154 332v575h75v-559q0 -150 66 -224.5t188 -74.5q137 0 232.5 96t95.5 275v487h78v-907h-62l-12 184h-6q-53 -100 -139.5 -151t-186.5 -51q-158 0 -243.5 87.5t-85.5 262.5z" />
    <glyph glyph-name="v" unicode="v" horiz-adv-x="894" 
d="M31 907h84l329 -764h7q55 128 166 383t165 383h82l-407 -911h-25z" />
    <glyph glyph-name="w" unicode="w" horiz-adv-x="1423" 
d="M31 907h78q32 -81 91.5 -237.5t108.5 -281.5t94 -236l302 755h20l305 -755h4l289 755h76l-357 -909h-24l-303 754h-2l-303 -754h-25q-129 326 -354 909z" />
    <glyph glyph-name="x" unicode="x" horiz-adv-x="888" 
d="M20 0l351 467l-330 442h84l319 -426l320 426h86l-334 -440l352 -469h-88l-336 451l-340 -451h-84z" />
    <glyph glyph-name="y" unicode="y" horiz-adv-x="866" 
d="M20 907h84q59 -143 167.5 -412t156.5 -386l4 -3l336 801h78l-565 -1347h-80q28 69 60 146t70 168.5t60 143.5z" />
    <glyph glyph-name="z" unicode="z" horiz-adv-x="815" 
d="M31 0v16l608 830h-545v61h664v-18q-176 -238 -606 -828h606v-61h-727z" />
    <glyph glyph-name="braceleft" unicode="{" horiz-adv-x="552" 
d="M113 674v22q118 30 118 238v311q0 34 1 56t5.5 55t14.5 54.5t26 42.5t43.5 31.5t63.5 10.5h96v-59h-75q-34 0 -56.5 -13.5t-32.5 -40.5t-13 -53t-3 -65v-334q0 -200 -104 -242v-6q25 -14 43.5 -34.5t29.5 -50.5t18 -56t9.5 -67.5t3 -66t0.5 -71.5v-369q0 -145 102 -145
h78v-62h-88q-43 0 -74 14.5t-48 36t-26 55t-11.5 61t-2.5 65.5v436q0 43 -3.5 75.5t-14.5 71t-36 64t-64 35.5z" />
    <glyph glyph-name="bar" unicode="|" horiz-adv-x="485" 
d="M209 -283v1837h67v-1837h-67z" />
    <glyph glyph-name="braceright" unicode="}" horiz-adv-x="552" 
d="M72 -178h75q32 0 53.5 14t32 40.5t14 53.5t3.5 64v342q0 56 0.5 85.5t6 78t16 77.5t31.5 59t52 46v6q-106 43 -106 242v362q0 67 -22.5 105.5t-82.5 38.5h-73v59h94q43 0 73.5 -17t45.5 -39.5t23 -61t9.5 -64.5t1.5 -68v-311q0 -207 121 -238v-22q-39 -10 -65 -35.5
t-37.5 -64t-15 -71t-3.5 -75.5v-436q0 -48 -4.5 -82t-19.5 -72t-49 -58t-86 -20h-88v62z" />
    <glyph glyph-name="asciitilde" unicode="~" horiz-adv-x="1042" 
d="M76 600q42 75 96 115.5t133 40.5q46 0 107 -21t111 -46.5t107 -46.5t95 -21q118 0 197 137l45 -43q-37 -76 -99.5 -120t-146.5 -44q-47 0 -108.5 21t-111 45.5t-106 45.5t-94.5 21q-57 0 -98 -31t-82 -96z" />
    <glyph glyph-name="uni00A0" unicode="&#xa0;" horiz-adv-x="491" 
 />
    <glyph glyph-name="exclamdown" unicode="&#xa1;" horiz-adv-x="505" 
d="M190 864q0 28 18 47t46 19q27 0 46 -19.5t19 -46.5t-19 -46t-46 -19t-45.5 19t-18.5 46zM213 -483l6 571q4 187 8 557h58l6 -559q0 -84 1 -178.5t2.5 -211t2.5 -179.5h-84z" />
    <glyph glyph-name="cent" unicode="&#xa2;" 
d="M190 631q0 192 118.5 326t301.5 153v211h66v-209q119 -4 201 -39v-74q-88 48 -209 48q-170 0 -285 -115t-115 -301q0 -177 106 -288.5t290 -111.5q145 0 249 68v-76q-95 -53 -239 -57v-209h-66v209q-199 13 -308.5 142t-109.5 323z" />
    <glyph glyph-name="sterling" unicode="&#xa3;" 
d="M160 0v18q106 105 143.5 258t42.5 392h-164v55h164l2 207q1 99 27 177t66.5 125.5t94.5 78.5t107 43t109 12q94 0 184 -33v-67q-100 34 -182 34q-146 0 -236.5 -91t-93.5 -281l-2 -205h412v-55h-412q-5 -223 -39 -372.5t-109 -232.5h682v-63h-796z" />
    <glyph glyph-name="currency" unicode="&#xa4;" 
d="M158 911l57 54l104 -111q105 84 228 84q131 0 233 -86l34.5 34.5l40.5 40.5l34 34l55 -54l-113 -112q76 -99 76 -220q0 -120 -76 -219q21 -22 60 -59t53 -51l-55 -56l-113 109q-101 -82 -229 -82q-122 0 -225 80l-105 -107l-55 56l106 104q-80 92 -80 225q0 124 76 226z
M258 573q0 -117 84.5 -200.5t204.5 -83.5q121 0 204 83t83 201q0 122 -83 207.5t-204 85.5q-120 0 -204.5 -85.5t-84.5 -207.5z" />
    <glyph glyph-name="yen" unicode="&#xa5;" 
d="M96 1354h90l375 -703h4l385 701h80l-405 -721h372v-51h-852v51h355q-68 120 -202 361.5t-202 361.5zM145 395v51h852v-51h-395v-395h-78v395h-379z" />
    <glyph glyph-name="brokenbar" unicode="&#xa6;" horiz-adv-x="483" 
d="M209 -283v858h67v-858h-67zM209 823v731h67v-731h-67z" />
    <glyph glyph-name="section" unicode="&#xa7;" horiz-adv-x="1130" 
d="M178 4q68 -44 165 -73t185 -29q81 0 147.5 19.5t112.5 68t46 119.5q0 65 -36 116.5t-93 85.5t-126.5 64t-139 62t-126.5 69.5t-93 96t-36 132.5q0 82 45.5 149.5t128.5 108.5q-53 42 -81.5 89.5t-28.5 115.5q0 122 95 193t249 71q164 0 285 -59v-78q-134 70 -283 70
q-112 0 -189 -50t-77 -143q0 -52 27.5 -95t72.5 -71t102.5 -56t117 -50.5t117 -53.5t102.5 -65t72.5 -86.5t27.5 -116.5q0 -88 -48.5 -157t-130.5 -109q130 -93 130 -223q0 -131 -107.5 -210t-269.5 -79q-111 0 -208 24.5t-155 65.5v84zM266 748q0 -63 27.5 -109.5t79 -79
t105.5 -56t128 -56t125 -64.5q154 77 154 217q0 49 -23.5 91t-58.5 70t-88.5 56t-101.5 47t-109.5 44.5t-100.5 45.5q-54 -27 -95.5 -81.5t-41.5 -124.5z" />
    <glyph glyph-name="dieresis" unicode="&#xa8;" horiz-adv-x="913" 
d="M223 1194q0 23 17 39t39 16q24 0 38.5 -14.5t14.5 -38.5q0 -25 -14.5 -41t-38.5 -16q-25 0 -40.5 15t-15.5 40zM543 1194q0 23 16.5 39t38.5 16q26 0 40.5 -14.5t14.5 -38.5q0 -25 -14.5 -41t-40.5 -16q-24 0 -39.5 15.5t-15.5 39.5z" />
    <glyph glyph-name="copyright" unicode="&#xa9;" horiz-adv-x="1705" 
d="M113 721q0 207 99 377t268.5 266t373.5 96q147 0 281.5 -57.5t232 -155.5t155.5 -235.5t58 -290.5q0 -154 -58 -292t-157 -236t-234 -155.5t-284 -57.5q-156 0 -293 57.5t-234 156t-152.5 235.5t-55.5 292zM170 721q0 -143 51 -270.5t140 -219t215.5 -145t271.5 -53.5
q137 0 262 53.5t215.5 145t144.5 219.5t54 270q0 189 -91 346.5t-245.5 247.5t-335.5 90q-187 0 -343.5 -89t-247.5 -246.5t-91 -348.5zM395 698q0 212 133.5 354t352.5 142q123 0 223 -43v-61q-94 47 -217 47q-192 0 -308 -122t-116 -317q0 -191 117 -307.5t311 -116.5
q61 0 130 16t120 44v-58q-52 -28 -122.5 -43.5t-133.5 -15.5q-233 0 -361.5 130.5t-128.5 350.5z" />
    <glyph glyph-name="ordfeminine" unicode="&#xaa;" horiz-adv-x="700" 
d="M72 770q0 199 313 199h158v37q0 76 -48.5 118.5t-142.5 42.5q-107 0 -215 -61v61q100 58 217 58q254 0 254 -232v-383h-51q-1 24 -6 71t-6 54q-23 -51 -69 -83.5t-90.5 -43t-92.5 -10.5q-111 0 -166 50.5t-55 121.5zM139 772q0 -58 45.5 -87.5t118.5 -29.5q46 0 86.5 12
t76 37t56.5 71t21 108v32h-156q-248 0 -248 -143z" />
    <glyph glyph-name="guillemotleft" unicode="&#xab;" horiz-adv-x="786" 
d="M92 395v15q257 320 285 354h82l-287 -358l293 -365h-86q-28 35 -130.5 160t-156.5 194zM338 395v15q48 58 143.5 177t143.5 177h82q-280 -346 -289 -358l293 -365h-86z" />
    <glyph glyph-name="logicalnot" unicode="&#xac;" 
d="M174 580v61h756v-410h-64v349h-692z" />
    <glyph glyph-name="uni00AD" unicode="&#xad;" horiz-adv-x="759" 
d="M125 461v76h510v-76h-510z" />
    <glyph glyph-name="registered" unicode="&#xae;" horiz-adv-x="1247" 
d="M133 944q0 99 39 189.5t104.5 156.5t155.5 105t189 39q139 0 252.5 -66.5t176 -178.5t62.5 -245q0 -134 -65.5 -246.5t-178.5 -177.5t-247 -65q-219 0 -353.5 140t-134.5 349zM182 944q0 -187 123 -314.5t316 -127.5q183 0 311.5 129.5t128.5 312.5t-127 311.5
t-313 128.5q-120 0 -221 -59t-159.5 -160.5t-58.5 -220.5zM453 659v586h194q85 0 144 -45.5t59 -126.5q0 -66 -49 -113t-135 -59q24 -27 219 -244h-68l-229 265v14q103 1 157 36.5t54 94.5q0 65 -43 99t-117 34h-135v-541h-51z" />
    <glyph glyph-name="macron" unicode="&#xaf;" horiz-adv-x="956" 
d="M199 1149v68h536v-68h-536z" />
    <glyph glyph-name="degree" unicode="&#xb0;" horiz-adv-x="837" 
d="M186 1087q0 100 68 169t164 69q105 0 174.5 -68.5t69.5 -169.5q0 -98 -69.5 -164.5t-174.5 -66.5q-106 0 -169 65.5t-63 165.5zM244 1087q0 -73 49 -125.5t125 -52.5q81 0 133.5 52.5t52.5 125.5q0 75 -52.5 129t-133.5 54q-73 0 -123.5 -53.5t-50.5 -129.5z" />
    <glyph glyph-name="plusminus" unicode="&#xb1;" 
d="M174 0v63h756v-63h-756zM174 551v61h348v342h64v-342h344v-61h-344v-338h-64v338h-348z" />
    <glyph glyph-name="uni00B2" unicode="&#xb2;" horiz-adv-x="696" 
d="M68 797q1 56 20 105.5t44 85t69 72.5t77.5 59.5t86.5 54.5q39 23 65.5 41.5t59 46t49 58t16.5 62.5q0 77 -57 117.5t-140 40.5q-86 0 -140 -48t-54 -122q0 -18 10 -63l-70 10q-6 20 -6 61q0 96 76 157.5t184 61.5q110 0 187.5 -55.5t77.5 -157.5q0 -130 -205 -249
q-42 -24 -68.5 -40t-69 -47t-68.5 -57.5t-47.5 -64t-25.5 -74.5h492v-55h-563z" />
    <glyph glyph-name="uni00B3" unicode="&#xb3;" horiz-adv-x="710" 
d="M70 866v74q120 -102 268 -102q104 0 168.5 54t64.5 144q0 95 -69.5 144t-179.5 49q-51 0 -76 -4q-9 13 -10 18l278 283h-405v57h524v-14l-289 -289q136 0 215.5 -67t79.5 -177q0 -117 -88 -185.5t-215 -68.5q-158 0 -266 84z" />
    <glyph glyph-name="acute" unicode="&#xb4;" horiz-adv-x="948" 
d="M391 1094l246 292l84 -28l-268 -264h-62z" />
    <glyph glyph-name="paragraph" unicode="&#xb6;" horiz-adv-x="999" 
d="M145 1038q0 152 106 257.5t269 105.5h135v-727h-135q-166 0 -270.5 104t-104.5 260zM463 -285q152 6 217 96.5t65 258.5v1333h80v-1380q0 -172 -88.5 -272t-240.5 -105z" />
    <glyph glyph-name="periodcentered" unicode="&#xb7;" horiz-adv-x="342" 
d="M102 512q0 29 19.5 48.5t48.5 19.5q28 0 48 -19.5t20 -48.5t-20 -48.5t-48 -19.5q-29 0 -48.5 19.5t-19.5 48.5z" />
    <glyph glyph-name="cedilla" unicode="&#xb8;" horiz-adv-x="845" 
d="M270 -338q82 -33 158 -33q70 0 107.5 30.5t37.5 74.5q0 52 -41 78t-98 26q-36 0 -69 -10l-15 8l80 187h47l-59 -136q5 0 16 1t17 1q96 0 145 -43t49 -106q0 -72 -60 -120t-157 -48q-74 0 -158 31v59z" />
    <glyph glyph-name="uni00B9" unicode="&#xb9;" horiz-adv-x="583" 
d="M94 1360v65l287 168h12v-796h-65v696q-37 -22 -117 -66.5t-117 -66.5z" />
    <glyph glyph-name="ordmasculine" unicode="&#xba;" horiz-adv-x="772" 
d="M63 913q0 130 94.5 221t229.5 91q138 0 230 -90t92 -222t-93 -222.5t-229 -90.5q-149 0 -236.5 88.5t-87.5 224.5zM133 913q0 -109 69.5 -182.5t184.5 -73.5q112 0 181 74t69 182q0 105 -70 179.5t-180 74.5q-109 0 -181.5 -74t-72.5 -180z" />
    <glyph glyph-name="guillemotright" unicode="&#xbb;" horiz-adv-x="786" 
d="M92 41q222 280 291 365l-287 358h82q48 -58 143.5 -177t143.5 -177v-15l-287 -354h-86zM338 41l293 365l-289 358h82q48 -58 143.5 -177t143.5 -177v-15l-287 -354h-86z" />
    <glyph glyph-name="onequarter" unicode="&#xbc;" horiz-adv-x="1536" 
d="M133 1176v65l287 168h12v-797h-65v697q-37 -23 -117 -66.5t-117 -66.5zM219 -39l1067 1434h66l-1067 -1434h-66zM760 195v22l448 571h74l-430 -540h362v219l50 72h14v-291h125v-53h-125v-195h-64v195h-454z" />
    <glyph glyph-name="onehalf" unicode="&#xbd;" horiz-adv-x="1536" 
d="M96 1176v65l287 168h12v-797h-65v697q-37 -23 -117 -66.5t-117 -66.5zM135 -39l1067 1434h66l-1067 -1434h-66zM879 -2q1 56 20 105.5t44 85t69 72.5t77.5 59.5t86.5 54.5q39 23 65.5 41.5t58.5 46.5t49 58.5t17 62.5q0 77 -57 117t-140 40q-86 0 -140 -48t-54 -122
q0 -18 10 -63l-70 10q-6 20 -6 62q0 96 76 157.5t184 61.5q110 0 187.5 -55.5t77.5 -157.5q0 -131 -205 -250q-42 -24 -68.5 -40t-69 -47t-68.5 -57.5t-47.5 -64t-25.5 -74.5h492v-55h-563z" />
    <glyph glyph-name="threequarters" unicode="&#xbe;" horiz-adv-x="1536" 
d="M100 682v74q121 -103 269 -103q104 0 168.5 54.5t64.5 144.5q0 95 -69.5 143.5t-180.5 48.5q-51 0 -76 -4q-8 13 -10 19l279 282h-406v58h525v-15l-289 -288q136 0 215.5 -67t79.5 -177q0 -117 -88 -185.5t-215 -68.5q-159 0 -267 84zM291 -39l1067 1434h65l-1067 -1434
h-65zM825 195v22l449 571h74l-430 -540h362v219l49 72h14v-291h125v-53h-125v-195h-63v195h-455z" />
    <glyph glyph-name="questiondown" unicode="&#xbf;" horiz-adv-x="997" 
d="M180 -139q0 64 25.5 125t66 109t89.5 93.5t97.5 87t89 80.5t66 82.5t25.5 85.5q0 53 -35 113l76 20q37 -75 37 -135q0 -51 -25.5 -100.5t-66 -90.5t-89.5 -83t-97.5 -84.5t-89 -86.5t-66 -98.5t-25.5 -111.5q0 -130 88 -208.5t240 -78.5q155 0 305 72v-80
q-157 -66 -309 -66q-109 0 -199 39.5t-146.5 122t-56.5 193.5zM567 860q0 27 18.5 45.5t45.5 18.5q29 0 47 -18t18 -46q0 -27 -18 -45t-47 -18q-28 0 -46 17.5t-18 45.5z" />
    <glyph glyph-name="Agrave" unicode="&#xc0;" horiz-adv-x="1226" 
d="M31 0l571 1358h21l571 -1358h-82l-141 338h-721l-141 -338h-78zM274 1731l88 28l283 -256h-67zM279 406h663l-334 798z" />
    <glyph glyph-name="Aacute" unicode="&#xc1;" horiz-adv-x="1226" 
d="M31 0l571 1358h21l571 -1358h-82l-141 338h-721l-141 -338h-78zM279 406h663l-334 798zM559 1505l281 254l88 -28l-301 -230z" />
    <glyph glyph-name="Acircumflex" unicode="&#xc2;" horiz-adv-x="1226" 
d="M31 0l571 1358h21l571 -1358h-82l-141 338h-721l-141 -338h-78zM279 406h663l-334 798zM319 1487q162 141 285 246h27q41 -36 87 -77t102 -91.5t87 -77.5h-94q-30 25 -96.5 79.5t-100.5 82.5q-58 -44 -204 -162h-93z" />
    <glyph glyph-name="Atilde" unicode="&#xc3;" horiz-adv-x="1226" 
d="M31 0l571 1358h21l571 -1358h-82l-141 338h-721l-141 -338h-78zM279 406h663l-334 798zM328 1583q25 57 65.5 92t93.5 35q48 0 134.5 -46t117.5 -46q37 0 64 24t53 74q8 -7 22 -22.5t19 -20.5q-57 -121 -154 -121q-47 0 -133 45t-121 45q-73 0 -120 -102z" />
    <glyph glyph-name="Adieresis" unicode="&#xc4;" horiz-adv-x="1226" 
d="M31 0l571 1358h21l571 -1358h-82l-141 338h-721l-141 -338h-78zM279 406h663l-334 798zM401 1610q0 23 17 39t39 16q24 0 38.5 -15.5t14.5 -39.5q0 -25 -14.5 -40.5t-38.5 -15.5q-25 0 -40.5 15.5t-15.5 40.5zM721 1610q0 23 16.5 39t38.5 16q26 0 40.5 -15.5t14.5 -39.5
q0 -25 -14.5 -40.5t-40.5 -15.5q-24 0 -39.5 16t-15.5 40z" />
    <glyph glyph-name="Aring" unicode="&#xc5;" horiz-adv-x="1226" 
d="M31 0l571 1358h21l571 -1358h-82l-141 338h-721l-141 -338h-78zM279 406h663l-334 798zM449 1577q0 69 46 116.5t115 47.5q72 0 118 -47t46 -117q0 -69 -46 -116.5t-118 -47.5q-74 0 -117.5 46t-43.5 118zM498 1577q0 -50 31 -83.5t81 -33.5q52 0 83.5 34.5t31.5 82.5
t-31.5 82.5t-83.5 34.5q-49 0 -80.5 -34.5t-31.5 -82.5z" />
    <glyph glyph-name="AE" unicode="&#xc6;" horiz-adv-x="1906" 
d="M-41 0q396 496 1083 1352h746v-70h-721v-528h670v-70h-670v-612h776v-72h-856v338h-663l-271 -338h-94zM377 406h610v765h-4q-45 -57 -266 -336.5t-340 -428.5z" />
    <glyph glyph-name="Ccedilla" unicode="&#xc7;" horiz-adv-x="1241" 
d="M113 670q0 151 54.5 283t147.5 224.5t221.5 145.5t272.5 53q214 0 328 -57v-78q-141 66 -322 66q-171 0 -311.5 -78t-224.5 -224.5t-84 -334.5q0 -180 70 -318.5t210 -218.5t332 -80q91 0 193 25.5t190 75.5v-78q-75 -45 -184.5 -69.5t-204.5 -24.5q-29 0 -41 2l-45 -103
q5 0 16 1t17 1q96 0 145 -43t49 -106q0 -72 -60 -120t-157 -48q-74 0 -158 31v59q82 -33 158 -33q70 0 107.5 30.5t37.5 74.5q0 52 -41 78t-98 26q-36 0 -69 -10l-15 8l66 156q-190 18 -327 113t-205 241.5t-68 329.5z" />
    <glyph glyph-name="Egrave" unicode="&#xc8;" horiz-adv-x="1122" 
d="M174 0v1352h830v-70h-752v-528h700v-70h-700v-612h807v-72h-885zM348 1731l88 28l283 -256h-68z" />
    <glyph glyph-name="Eacute" unicode="&#xc9;" horiz-adv-x="1122" 
d="M174 0v1352h830v-70h-752v-528h700v-70h-700v-612h807v-72h-885zM477 1505l281 254l88 -28l-301 -230z" />
    <glyph glyph-name="Ecircumflex" unicode="&#xca;" horiz-adv-x="1122" 
d="M174 0v1352h830v-70h-752v-528h700v-70h-700v-612h807v-72h-885zM297 1493q162 141 285 246h26q41 -36 277 -246h-94q-30 25 -96.5 79.5t-100.5 82.5q-74 -56 -205 -162h-92z" />
    <glyph glyph-name="Edieresis" unicode="&#xcb;" horiz-adv-x="1122" 
d="M174 0v1352h830v-70h-752v-528h700v-70h-700v-612h807v-72h-885zM362 1610q0 23 17 39t39 16q24 0 38.5 -15.5t14.5 -39.5q0 -25 -14.5 -40.5t-38.5 -15.5q-25 0 -40.5 15.5t-15.5 40.5zM682 1610q0 23 16.5 39t38.5 16q26 0 41 -15.5t15 -39.5q0 -25 -15 -40.5
t-41 -15.5q-23 0 -39 16t-16 40z" />
    <glyph glyph-name="Igrave" unicode="&#xcc;" horiz-adv-x="466" 
d="M-70 1731l88 28l283 -256h-68zM195 0v1354h77v-1354h-77z" />
    <glyph glyph-name="Iacute" unicode="&#xcd;" horiz-adv-x="466" 
d="M168 1505l281 254l88 -28l-301 -230zM195 0v1354h77v-1354h-77z" />
    <glyph glyph-name="Icircumflex" unicode="&#xce;" horiz-adv-x="466" 
d="M-61 1493q202 176 284 246h27q41 -36 87 -77t102 -91.5t87 -77.5h-94q-28 23 -95 78t-101 84q-74 -56 -205 -162h-92zM195 0v1354h77v-1354h-77z" />
    <glyph glyph-name="Idieresis" unicode="&#xcf;" horiz-adv-x="466" 
d="M16 1610q0 23 17 39t39 16q24 0 38.5 -15.5t14.5 -39.5q0 -25 -14.5 -40.5t-38.5 -15.5q-25 0 -40.5 15.5t-15.5 40.5zM195 0v1354h77v-1354h-77zM336 1610q0 23 16.5 39t38.5 16q26 0 40.5 -15.5t14.5 -39.5q0 -25 -14.5 -40.5t-40.5 -15.5q-23 0 -39 16t-16 40z" />
    <glyph glyph-name="Eth" unicode="&#xd0;" horiz-adv-x="1396" 
d="M45 672v69h152v611h407q317 0 497.5 -179.5t180.5 -492.5q0 -150 -44.5 -275t-127 -215t-207.5 -140t-280 -50h-426v672h-152zM274 72h342q144 0 257 45t185 126t109 191.5t37 243.5t-37.5 243t-110 191t-187.5 125.5t-263 44.5h-332v-541h449v-69h-449v-600z" />
    <glyph glyph-name="Ntilde" unicode="&#xd1;" horiz-adv-x="1441" 
d="M174 0v1360h21l991 -1188h4v1180h76v-1356h-21l-995 1190v-1186h-76zM444 1571q25 56 66 91.5t94 35.5q48 0 134.5 -46t117.5 -46q37 0 64 24t53 74q8 -7 22 -22.5t19 -20.5q-57 -121 -154 -121q-47 0 -133 45t-121 45q-74 0 -121 -102z" />
    <glyph glyph-name="Ograve" unicode="&#xd2;" horiz-adv-x="1603" 
d="M113 676q0 143 54 272t146 222t220 147.5t270 54.5q195 0 352.5 -92.5t245.5 -251.5t88 -352t-88.5 -352t-246 -250.5t-351.5 -91.5q-206 0 -364.5 92t-242 249t-83.5 353zM195 676q0 -176 74.5 -317.5t214 -224.5t319.5 -83q175 0 315 84.5t216.5 227t76.5 313.5
q0 172 -77 314.5t-217 226t-314 83.5t-313.5 -83t-217 -225.5t-77.5 -315.5zM528 1731l88 28l283 -256h-68z" />
    <glyph glyph-name="Oacute" unicode="&#xd3;" horiz-adv-x="1603" 
d="M113 676q0 143 54 272t146 222t220 147.5t270 54.5q195 0 352.5 -92.5t245.5 -251.5t88 -352t-88.5 -352t-246 -250.5t-351.5 -91.5q-206 0 -364.5 92t-242 249t-83.5 353zM195 676q0 -176 74.5 -317.5t214 -224.5t319.5 -83q175 0 315 84.5t216.5 227t76.5 313.5
q0 172 -77 314.5t-217 226t-314 83.5t-313.5 -83t-217 -225.5t-77.5 -315.5zM727 1505l281 254l88 -28l-301 -230z" />
    <glyph glyph-name="Ocircumflex" unicode="&#xd4;" horiz-adv-x="1603" 
d="M113 676q0 143 54 272t146 222t220 147.5t270 54.5q195 0 352.5 -92.5t245.5 -251.5t88 -352t-88.5 -352t-246 -250.5t-351.5 -91.5q-206 0 -364.5 92t-242 249t-83.5 353zM195 676q0 -176 74.5 -317.5t214 -224.5t319.5 -83q175 0 315 84.5t216.5 227t76.5 313.5
q0 172 -77 314.5t-217 226t-314 83.5t-313.5 -83t-217 -225.5t-77.5 -315.5zM510 1493q162 141 285 246h26q41 -36 277 -246h-94q-30 25 -96.5 79.5t-100.5 82.5q-74 -56 -205 -162h-92z" />
    <glyph glyph-name="Otilde" unicode="&#xd5;" horiz-adv-x="1603" 
d="M113 676q0 143 54 272t146 222t220 147.5t270 54.5q195 0 352.5 -92.5t245.5 -251.5t88 -352t-88.5 -352t-246 -250.5t-351.5 -91.5q-206 0 -364.5 92t-242 249t-83.5 353zM195 676q0 -176 74.5 -317.5t214 -224.5t319.5 -83q175 0 315 84.5t216.5 227t76.5 313.5
q0 172 -77 314.5t-217 226t-314 83.5t-313.5 -83t-217 -225.5t-77.5 -315.5zM524 1589q25 56 66 91.5t94 35.5q48 0 134.5 -46t117.5 -46q37 0 64 24t53 74q8 -7 22 -22.5t19 -20.5q-57 -120 -154 -120q-47 0 -133 45t-121 45q-74 0 -121 -103z" />
    <glyph glyph-name="Odieresis" unicode="&#xd6;" horiz-adv-x="1603" 
d="M113 676q0 143 54 272t146 222t220 147.5t270 54.5q195 0 352.5 -92.5t245.5 -251.5t88 -352t-88.5 -352t-246 -250.5t-351.5 -91.5q-206 0 -364.5 92t-242 249t-83.5 353zM195 676q0 -176 74.5 -317.5t214 -224.5t319.5 -83q175 0 315 84.5t216.5 227t76.5 313.5
q0 172 -77 314.5t-217 226t-314 83.5t-313.5 -83t-217 -225.5t-77.5 -315.5zM573 1610q0 23 17 39t39 16q24 0 38.5 -15.5t14.5 -39.5q0 -25 -14.5 -40.5t-38.5 -15.5q-25 0 -40.5 15.5t-15.5 40.5zM893 1610q0 23 16.5 39t38.5 16q26 0 41 -15.5t15 -39.5q0 -25 -15 -40.5
t-41 -15.5q-24 0 -39.5 16t-15.5 40z" />
    <glyph glyph-name="multiply" unicode="&#xd7;" 
d="M260 336l78.5 78.5t91.5 92t78 77.5q-48 49 -136.5 137t-109.5 108q5 5 14.5 14t17 16.5t13.5 14.5q20 -20 109 -108t137 -137l242 243l47 -47l-244 -241l77 -77l90.5 -90.5l76.5 -76.5l-43 -45l-244 244q-125 -123 -248 -248z" />
    <glyph glyph-name="Oslash" unicode="&#xd8;" horiz-adv-x="1603" 
d="M113 676q0 143 54 272t146 222t220 147.5t270 54.5q232 0 411 -133l89 113h75l-118 -150q109 -97 169 -232.5t60 -293.5q0 -193 -88.5 -352t-246 -250.5t-351.5 -91.5q-233 0 -404 114l-73 -96h-78q21 24 56 70t48 61q-115 93 -177 235t-62 310zM195 676
q0 -147 53.5 -271.5t152.5 -209.5q54 69 766 987q-156 118 -364 118q-174 0 -313.5 -83t-217 -225.5t-77.5 -315.5zM449 156q153 -105 354 -105q175 0 315 84.5t216.5 227t76.5 313.5q0 138 -52 259t-145 208q-150 -192 -427.5 -551t-337.5 -436z" />
    <glyph glyph-name="Ugrave" unicode="&#xd9;" horiz-adv-x="1374" 
d="M174 502v850h76v-840q0 -101 25 -183t76.5 -144.5t136.5 -97t198 -34.5q112 0 197 33.5t136.5 95.5t77 143.5t25.5 182.5v844h78v-852q0 -235 -132.5 -376.5t-381.5 -141.5q-252 0 -382 138.5t-130 381.5zM440 1731l88 28l283 -256h-68z" />
    <glyph glyph-name="Uacute" unicode="&#xda;" horiz-adv-x="1374" 
d="M174 502v850h76v-840q0 -101 25 -183t76.5 -144.5t136.5 -97t198 -34.5q112 0 197 33.5t136.5 95.5t77 143.5t25.5 182.5v844h78v-852q0 -235 -132.5 -376.5t-381.5 -141.5q-252 0 -382 138.5t-130 381.5zM592 1505l280 254l89 -28l-302 -230z" />
    <glyph glyph-name="Ucircumflex" unicode="&#xdb;" horiz-adv-x="1374" 
d="M174 502v850h76v-840q0 -101 25 -183t76.5 -144.5t136.5 -97t198 -34.5q112 0 197 33.5t136.5 95.5t77 143.5t25.5 182.5v844h78v-852q0 -235 -132.5 -376.5t-381.5 -141.5q-252 0 -382 138.5t-130 381.5zM401 1493q162 141 285 246h27q41 -36 87 -77t102 -91.5t87 -77.5
h-94q-30 25 -96.5 79.5t-100.5 82.5q-58 -44 -204 -162h-93z" />
    <glyph glyph-name="Udieresis" unicode="&#xdc;" horiz-adv-x="1374" 
d="M174 502v850h76v-840q0 -101 25 -183t76.5 -144.5t136.5 -97t198 -34.5q112 0 197 33.5t136.5 95.5t77 143.5t25.5 182.5v844h78v-852q0 -235 -132.5 -376.5t-381.5 -141.5q-252 0 -382 138.5t-130 381.5zM481 1610q0 21 16.5 37t37.5 16q24 0 37.5 -15t13.5 -38
q0 -25 -13.5 -39.5t-37.5 -14.5t-39 15t-15 39zM791 1610q0 22 15.5 37.5t37.5 15.5q24 0 38.5 -15.5t14.5 -37.5q0 -25 -14 -39.5t-39 -14.5q-24 0 -38.5 15t-14.5 39z" />
    <glyph glyph-name="Yacute" unicode="&#xdd;" horiz-adv-x="1101" 
d="M20 1352h89q152 -231 452 -697h6l428 697h84q-90 -144 -254 -410t-223 -362v-580h-78v580zM463 1497l280 254l88 -29l-301 -229z" />
    <glyph glyph-name="Thorn" unicode="&#xde;" horiz-adv-x="1132" 
d="M174 0v1352h78v-222h379q201 0 320.5 -114t119.5 -289q0 -84 -30 -158.5t-85 -132t-141.5 -91.5t-191.5 -34h-371v-311h-78zM252 381h366q163 0 268 91.5t105 248.5q0 64 -21.5 122t-64.5 108t-118 80t-173 30h-362v-680z" />
    <glyph glyph-name="germandbls" unicode="&#xdf;" horiz-adv-x="1128" 
d="M133 0v1038q0 126 45.5 226t139.5 160.5t223 60.5q173 0 279 -99t106 -256q0 -27 -8 -60t-26 -74.5t-57 -79t-92 -58.5v-8q133 -33 213 -146.5t80 -263.5q0 -128 -56 -232.5t-162.5 -166t-244.5 -61.5q-99 0 -157 18q0 42 2 65q61 -20 151 -20q172 0 280.5 109.5
t108.5 291.5q0 175 -99 268t-257 103v68q66 5 116 31.5t76.5 65t39 77t12.5 76.5q0 132 -87 210t-214 78q-76 0 -136 -24t-96.5 -62.5t-60.5 -90.5t-33.5 -102.5t-9.5 -103.5v-1038h-76z" />
    <glyph glyph-name="agrave" unicode="&#xe0;" horiz-adv-x="1007" 
d="M94 231q0 297 430 297h252v64q0 127 -71 198.5t-218 71.5q-151 0 -299 -88v72q64 40 150 61t154 21q360 0 360 -346v-582h-59l-15 195q-1 0 -3 1t-3 1q-43 -110 -146 -162.5t-225 -52.5q-80 0 -141 21.5t-96 58t-52.5 79.5t-17.5 90zM172 238q0 -93 70 -143t176 -50
q68 0 129 21t114 63.5t84 116.5t31 170v53h-260q-344 0 -344 -231zM276 1376l86 27l236 -301l-63 -2z" />
    <glyph glyph-name="aacute" unicode="&#xe1;" horiz-adv-x="1007" 
d="M94 231q0 297 430 297h252v64q0 127 -71 198.5t-218 71.5q-151 0 -299 -88v72q64 40 150 61t154 21q360 0 360 -346v-582h-59l-15 195q-1 0 -3 1t-3 1q-43 -110 -146 -162.5t-225 -52.5q-80 0 -141 21.5t-96 58t-52.5 79.5t-17.5 90zM172 238q0 -93 70 -143t176 -50
q68 0 129 21t114 63.5t84 116.5t31 170v53h-260q-344 0 -344 -231zM406 1094l245 292l84 -28l-268 -264h-61z" />
    <glyph glyph-name="acircumflex" unicode="&#xe2;" horiz-adv-x="1007" 
d="M94 231q0 297 430 297h252v64q0 127 -71 198.5t-218 71.5q-151 0 -299 -88v72q64 40 150 61t154 21q360 0 360 -346v-582h-59l-15 195q-1 0 -3 1t-3 1q-43 -110 -146 -162.5t-225 -52.5q-80 0 -141 21.5t-96 58t-52.5 79.5t-17.5 90zM172 238q0 -93 70 -143t176 -50
q68 0 129 21t114 63.5t84 116.5t31 170v53h-260q-344 0 -344 -231zM213 1092q235 230 283 276h24l275 -276h-90l-201 184l-205 -184h-86z" />
    <glyph glyph-name="atilde" unicode="&#xe3;" horiz-adv-x="1007" 
d="M94 231q0 297 430 297h252v64q0 127 -71 198.5t-218 71.5q-151 0 -299 -88v72q64 40 150 61t154 21q360 0 360 -346v-582h-59l-15 195q-1 0 -3 1t-3 1q-43 -110 -146 -162.5t-225 -52.5q-80 0 -141 21.5t-96 58t-52.5 79.5t-17.5 90zM172 238q0 -93 70 -143t176 -50
q68 0 129 21t114 63.5t84 116.5t31 170v53h-260q-344 0 -344 -231zM213 1165q25 56 66 91.5t94 35.5q48 0 134.5 -46t117.5 -46q37 0 63.5 24t52.5 74q8 -7 22 -22.5t19 -20.5q-57 -120 -153 -120q-47 0 -133 45t-121 45q-74 0 -121 -103z" />
    <glyph glyph-name="adieresis" unicode="&#xe4;" horiz-adv-x="1007" 
d="M94 231q0 297 430 297h252v64q0 127 -71 198.5t-218 71.5q-151 0 -299 -88v72q64 40 150 61t154 21q360 0 360 -346v-582h-59l-15 195q-1 0 -3 1t-3 1q-43 -110 -146 -162.5t-225 -52.5q-80 0 -141 21.5t-96 58t-52.5 79.5t-17.5 90zM172 238q0 -93 70 -143t176 -50
q68 0 129 21t114 63.5t84 116.5t31 170v53h-260q-344 0 -344 -231zM291 1194q0 23 16.5 39t38.5 16q24 0 38.5 -14.5t14.5 -38.5q0 -25 -14.5 -41t-38.5 -16q-25 0 -40 15t-15 40zM610 1194q0 23 17 39t39 16q26 0 40.5 -14.5t14.5 -38.5q0 -25 -14.5 -41t-40.5 -16
q-24 0 -40 15.5t-16 39.5z" />
    <glyph glyph-name="aring" unicode="&#xe5;" horiz-adv-x="1007" 
d="M94 231q0 297 430 297h252v64q0 127 -71 198.5t-218 71.5q-151 0 -299 -88v72q64 40 150 61t154 21q360 0 360 -346v-582h-59l-15 195q-1 0 -3 1t-3 1q-43 -110 -146 -162.5t-225 -52.5q-80 0 -141 21.5t-96 58t-52.5 79.5t-17.5 90zM172 238q0 -93 70 -143t176 -50
q68 0 129 21t114 63.5t84 116.5t31 170v53h-260q-344 0 -344 -231zM342 1245q0 69 46.5 116.5t115.5 47.5q72 0 118 -47t46 -117q0 -69 -46 -116.5t-118 -47.5q-74 0 -118 46t-44 118zM391 1245q0 -50 31.5 -83.5t81.5 -33.5q52 0 83 34.5t31 82.5t-31 82.5t-83 34.5
q-49 0 -81 -34.5t-32 -82.5z" />
    <glyph glyph-name="ae" unicode="&#xe6;" horiz-adv-x="1697" 
d="M61 231q0 71 26 123t66.5 81.5t102 47.5t119.5 23.5t133 5.5h242v82q0 120 -68.5 194t-220.5 74q-149 0 -297 -88q0 11 -1 35.5t-1 36.5q68 41 151 61.5t152 20.5q296 0 344 -248q51 113 153.5 180.5t233.5 67.5q130 0 224 -60.5t139 -162t45 -232.5v-20h-775
q3 -178 111.5 -292t269.5 -114q105 0 186.5 26t155.5 89v-78q-122 -100 -338 -100q-153 0 -266 79t-151 211q-23 -73 -62.5 -128t-82.5 -85.5t-95.5 -49t-94.5 -24t-87 -5.5q-154 0 -234 74t-80 175zM139 238q0 -93 70.5 -143t181.5 -50q165 0 262 100t97 256v52h-236
q-61 0 -109.5 -4.5t-100.5 -18t-86.5 -36.5t-56.5 -62.5t-22 -93.5zM831 512h701q-6 158 -94.5 253t-239.5 95q-155 0 -255.5 -95.5t-111.5 -252.5z" />
    <glyph glyph-name="ccedilla" unicode="&#xe7;" horiz-adv-x="878" 
d="M102 446q0 206 134 344t335 138q123 0 220 -39v-74q-86 47 -211 47q-170 0 -285 -115t-115 -301q0 -177 106 -288t289 -111q148 0 252 68v-74q-106 -59 -264 -59q-9 0 -27.5 1t-27.5 1l-41 -97q5 0 16 1t17 1q96 0 145 -43t49 -106q0 -72 -60 -120t-157 -48
q-74 0 -158 31v59q83 -33 158 -33q70 0 108 30.5t38 74.5q0 52 -41.5 78t-98.5 26q-36 0 -69 -10l-15 8l66 154q-175 28 -269 152t-94 304z" />
    <glyph glyph-name="egrave" unicode="&#xe8;" horiz-adv-x="1058" 
d="M102 457q0 199 126 335t313 136q129 0 224 -62t142 -164t47 -229v-37h-774q-4 -100 44 -189t140.5 -144.5t206.5 -55.5q195 0 344 115v-78q-137 -102 -342 -102q-217 0 -344 128.5t-127 346.5zM182 500h699q-13 161 -98.5 259.5t-239.5 98.5q-150 0 -250 -100t-111 -258z
M303 1376l86 27l236 -301l-64 -2z" />
    <glyph glyph-name="eacute" unicode="&#xe9;" horiz-adv-x="1058" 
d="M102 457q0 199 126 335t313 136q129 0 224 -62t142 -164t47 -229v-37h-774q-4 -100 44 -189t140.5 -144.5t206.5 -55.5q195 0 344 115v-78q-137 -102 -342 -102q-217 0 -344 128.5t-127 346.5zM182 500h699q-13 161 -98.5 259.5t-239.5 98.5q-150 0 -250 -100t-111 -258z
M451 1094l245 292l84 -28l-268 -264h-61z" />
    <glyph glyph-name="ecircumflex" unicode="&#xea;" horiz-adv-x="1058" 
d="M102 457q0 199 126 335t313 136q129 0 224 -62t142 -164t47 -229v-37h-774q-4 -100 44 -189t140.5 -144.5t206.5 -55.5q195 0 344 115v-78q-137 -102 -342 -102q-217 0 -344 128.5t-127 346.5zM182 500h699q-13 161 -98.5 259.5t-239.5 98.5q-150 0 -250 -100t-111 -258z
M256 1092q235 230 283 276h24l275 -276h-90l-201 184l-205 -184h-86z" />
    <glyph glyph-name="edieresis" unicode="&#xeb;" horiz-adv-x="1058" 
d="M102 457q0 199 126 335t313 136q129 0 224 -62t142 -164t47 -229v-37h-774q-4 -100 44 -189t140.5 -144.5t206.5 -55.5q195 0 344 115v-78q-137 -102 -342 -102q-217 0 -344 128.5t-127 346.5zM182 500h699q-13 161 -98.5 259.5t-239.5 98.5q-150 0 -250 -100t-111 -258z
M326 1194q0 23 16.5 39t38.5 16q24 0 38.5 -14.5t14.5 -38.5q0 -25 -14.5 -41t-38.5 -16q-25 0 -40 15t-15 40zM645 1194q0 23 16.5 39t38.5 16q26 0 41 -14.5t15 -38.5q0 -25 -15 -41t-41 -16q-24 0 -39.5 15.5t-15.5 39.5z" />
    <glyph glyph-name="igrave" unicode="&#xec;" horiz-adv-x="423" 
d="M-53 1376l86 27l235 -301l-63 -2zM172 0v909h78v-909h-78z" />
    <glyph glyph-name="iacute" unicode="&#xed;" horiz-adv-x="423" 
d="M154 1094l245 292l84 -28l-268 -264h-61zM172 0v909h78v-909h-78z" />
    <glyph glyph-name="icircumflex" unicode="&#xee;" horiz-adv-x="423" 
d="M-82 1092q235 230 283 276h24l275 -276h-90l-201 184l-205 -184h-86zM172 0v909h78v-909h-78z" />
    <glyph glyph-name="idieresis" unicode="&#xef;" horiz-adv-x="423" 
d="M0 1194q0 23 16.5 39t38.5 16q25 0 39.5 -14.5t14.5 -38.5q0 -25 -15 -41t-39 -16q-25 0 -40 15t-15 40zM172 0v909h78v-909h-78zM319 1194q0 23 17 39t39 16q26 0 40.5 -14.5t14.5 -38.5q0 -25 -14.5 -41t-40.5 -16q-24 0 -40 15.5t-16 39.5z" />
    <glyph glyph-name="eth" unicode="&#xf0;" horiz-adv-x="1124" 
d="M92 442q0 197 134.5 331t328.5 134q139 0 253 -79.5t150 -211.5q3 2 5 2q-48 334 -265 568l-188 -131v67l147 105q-120 114 -272 198l61 39q148 -80 269 -198q27 20 58.5 42t69 48t58.5 41v-72q-80 -60 -143 -102q129 -143 200.5 -320t71.5 -368q0 -84 -17.5 -163.5
t-55.5 -150.5t-92.5 -124t-133.5 -84t-174 -31q-213 0 -339 129.5t-126 330.5zM168 442q0 -169 106.5 -283t282.5 -114q93 0 168 36.5t120.5 96t70 129t24.5 139.5q0 165 -108 280.5t-275 115.5t-278 -115.5t-111 -284.5z" />
    <glyph glyph-name="ntilde" unicode="&#xf1;" horiz-adv-x="1067" 
d="M154 0v907h59l12 -184q1 0 3 -1t3 -1q58 105 150 156t194 51q157 0 247.5 -93.5t90.5 -269.5v-565h-77v551q0 149 -72 228t-193 79q-65 0 -124.5 -23t-109 -66.5t-79 -116t-29.5 -163.5v-489h-75zM231 1163q25 56 66 91.5t94 35.5q48 0 134.5 -46t117.5 -46q37 0 64 24
t53 74q8 -7 22 -22.5t19 -20.5q-57 -120 -154 -120q-47 0 -133 45t-121 45q-74 0 -121 -103z" />
    <glyph glyph-name="ograve" unicode="&#xf2;" horiz-adv-x="1138" 
d="M102 455q0 198 136.5 335.5t332.5 137.5q132 0 238.5 -63t166.5 -171t60 -239t-60.5 -239.5t-167.5 -171t-237 -62.5q-214 0 -341.5 134.5t-127.5 338.5zM180 455q0 -176 107 -293t284 -117q171 0 279 119t108 291q0 171 -108.5 289t-278.5 118q-168 0 -279.5 -118.5
t-111.5 -288.5zM324 1376l86 27l235 -301l-63 -2z" />
    <glyph glyph-name="oacute" unicode="&#xf3;" horiz-adv-x="1138" 
d="M102 455q0 198 136.5 335.5t332.5 137.5q132 0 238.5 -63t166.5 -171t60 -239t-60.5 -239.5t-167.5 -171t-237 -62.5q-214 0 -341.5 134.5t-127.5 338.5zM180 455q0 -176 107 -293t284 -117q171 0 279 119t108 291q0 171 -108.5 289t-278.5 118q-168 0 -279.5 -118.5
t-111.5 -288.5zM512 1094l246 292l84 -28l-269 -264h-61z" />
    <glyph glyph-name="ocircumflex" unicode="&#xf4;" horiz-adv-x="1138" 
d="M102 455q0 198 136.5 335.5t332.5 137.5q132 0 238.5 -63t166.5 -171t60 -239t-60.5 -239.5t-167.5 -171t-237 -62.5q-214 0 -341.5 134.5t-127.5 338.5zM180 455q0 -176 107 -293t284 -117q171 0 279 119t108 291q0 171 -108.5 289t-278.5 118q-168 0 -279.5 -118.5
t-111.5 -288.5zM285 1092l282 276h25l274 -276h-90l-201 184l-204 -184h-86z" />
    <glyph glyph-name="otilde" unicode="&#xf5;" horiz-adv-x="1138" 
d="M102 455q0 198 136.5 335.5t332.5 137.5q132 0 238.5 -63t166.5 -171t60 -239t-60.5 -239.5t-167.5 -171t-237 -62.5q-214 0 -341.5 134.5t-127.5 338.5zM180 455q0 -176 107 -293t284 -117q171 0 279 119t108 291q0 171 -108.5 289t-278.5 118q-168 0 -279.5 -118.5
t-111.5 -288.5zM287 1163q25 57 65.5 92t93.5 35q48 0 134.5 -46t117.5 -46q37 0 64 24t53 74q8 -7 22 -22.5t19 -20.5q-57 -120 -154 -120q-47 0 -132.5 45t-120.5 45q-74 0 -121 -103z" />
    <glyph glyph-name="odieresis" unicode="&#xf6;" horiz-adv-x="1138" 
d="M102 455q0 198 136.5 335.5t332.5 137.5q132 0 238.5 -63t166.5 -171t60 -239t-60.5 -239.5t-167.5 -171t-237 -62.5q-214 0 -341.5 134.5t-127.5 338.5zM180 455q0 -176 107 -293t284 -117q171 0 279 119t108 291q0 171 -108.5 289t-278.5 118q-168 0 -279.5 -118.5
t-111.5 -288.5zM348 1194q0 23 16.5 39t38.5 16q25 0 39.5 -14.5t14.5 -38.5q0 -25 -15 -41t-39 -16q-25 0 -40 15t-15 40zM668 1194q0 23 16.5 39t38.5 16q26 0 40.5 -14.5t14.5 -38.5q0 -25 -14.5 -41t-40.5 -16q-24 0 -39.5 15.5t-15.5 39.5z" />
    <glyph glyph-name="divide" unicode="&#xf7;" 
d="M174 561v66h756v-66h-756zM489 317q0 26 18 44t46 18q27 0 45 -17.5t18 -44.5q0 -26 -18 -44.5t-43 -18.5q-27 0 -46.5 19t-19.5 44zM489 864q0 28 18 46t46 18t45.5 -18t17.5 -46q0 -25 -18 -44t-43 -19q-28 0 -47 18.5t-19 44.5z" />
    <glyph glyph-name="oslash" unicode="&#xf8;" horiz-adv-x="1118" 
d="M92 455q0 198 136.5 335.5t332.5 137.5q164 0 287 -99q55 65 65 78h74q-10 -12 -45 -52t-53 -62q137 -134 137 -338q0 -131 -60.5 -239.5t-167.5 -171t-237 -62.5q-169 0 -285 84l-55 -66h-74l89 100q-144 135 -144 355zM170 455q0 -181 113 -297l520 618
q-107 86 -242 86q-168 0 -279.5 -118.5t-111.5 -288.5zM324 119q96 -74 237 -74q171 0 279 119t108 291q0 168 -108 282z" />
    <glyph glyph-name="ugrave" unicode="&#xf9;" horiz-adv-x="1042" 
d="M154 332v575h75v-559q0 -150 66 -224.5t188 -74.5q137 0 232.5 96t95.5 275v487h78v-907h-62l-12 184h-6q-53 -100 -139.5 -151t-186.5 -51q-158 0 -243.5 87.5t-85.5 262.5zM279 1376l86 27l235 -301l-63 -2z" />
    <glyph glyph-name="uacute" unicode="&#xfa;" horiz-adv-x="1042" 
d="M154 332v575h75v-559q0 -150 66 -224.5t188 -74.5q137 0 232.5 96t95.5 275v487h78v-907h-62l-12 184h-6q-53 -100 -139.5 -151t-186.5 -51q-158 0 -243.5 87.5t-85.5 262.5zM432 1094l246 292l84 -28l-268 -264h-62z" />
    <glyph glyph-name="ucircumflex" unicode="&#xfb;" horiz-adv-x="1042" 
d="M154 332v575h75v-559q0 -150 66 -224.5t188 -74.5q137 0 232.5 96t95.5 275v487h78v-907h-62l-12 184h-6q-53 -100 -139.5 -151t-186.5 -51q-158 0 -243.5 87.5t-85.5 262.5zM240 1092l282 276h25l274 -276h-90l-201 184l-204 -184h-86z" />
    <glyph glyph-name="udieresis" unicode="&#xfc;" horiz-adv-x="1042" 
d="M154 332v575h75v-559q0 -150 66 -224.5t188 -74.5q137 0 232.5 96t95.5 275v487h78v-907h-62l-12 184h-6q-53 -100 -139.5 -151t-186.5 -51q-158 0 -243.5 87.5t-85.5 262.5zM305 1194q0 23 16.5 39t38.5 16q24 0 39 -14.5t15 -38.5q0 -25 -15 -41t-39 -16q-25 0 -40 15
t-15 40zM625 1194q0 23 16.5 39t38.5 16q26 0 40.5 -14.5t14.5 -38.5q0 -25 -14.5 -41t-40.5 -16q-24 0 -39.5 15.5t-15.5 39.5z" />
    <glyph glyph-name="yacute" unicode="&#xfd;" horiz-adv-x="866" 
d="M20 907h84q59 -143 167.5 -412t156.5 -386l4 -3l336 801h78l-565 -1347h-80q28 69 60 146t70 168.5t60 143.5zM362 1092l246 292l84 -28l-268 -264h-62z" />
    <glyph glyph-name="thorn" unicode="&#xfe;" horiz-adv-x="1146" 
d="M133 -430v1884h76v-762q1 0 3 -1t3 -1q49 110 151 173t228 63q211 0 336 -133t125 -340q0 -199 -132.5 -335t-330.5 -136q-130 0 -232.5 61.5t-146.5 169.5q-1 0 -2.5 -1t-3.5 -1v-641h-74zM207 453q0 -175 103.5 -290.5t279.5 -115.5q170 0 278.5 117.5t108.5 288.5
q0 175 -105.5 292t-281.5 117q-174 0 -278.5 -116t-104.5 -293z" />
    <glyph glyph-name="ydieresis" unicode="&#xff;" horiz-adv-x="866" 
d="M20 907h84q59 -143 167.5 -412t156.5 -386l4 -3l336 801h78l-565 -1347h-80q28 69 60 146t70 168.5t60 143.5zM233 1180q0 23 17 39t39 16q24 0 38.5 -14.5t14.5 -38.5q0 -25 -14.5 -41.5t-38.5 -16.5q-25 0 -40.5 15.5t-15.5 40.5zM553 1180q0 23 16.5 39t38.5 16
q26 0 41 -14.5t15 -38.5q0 -25 -15 -41.5t-41 -16.5q-24 0 -39.5 16t-15.5 40z" />
    <glyph glyph-name="OE" unicode="&#x152;" horiz-adv-x="1873" 
d="M113 680q0 197 87.5 357t245 251.5t353.5 91.5q101 0 200 -26h756v-72h-723v-526h672v-72h-672v-612h780v-72h-839q-79 -18 -174 -18q-320 0 -503 191t-183 507zM193 680q0 -282 164 -455.5t442 -173.5q66 0 155 19v1218q-78 19 -155 19q-179 0 -318 -82t-213.5 -224.5
t-74.5 -320.5z" />
    <glyph glyph-name="oe" unicode="&#x153;" horiz-adv-x="1898" 
d="M92 455q0 198 136.5 335.5t332.5 137.5q150 0 265.5 -83.5t160.5 -217.5q42 134 151.5 217.5t252.5 83.5q130 0 225 -62t141.5 -164t46.5 -229v-37h-774q3 -51 21 -92q25 -139 124.5 -218t245.5 -79q194 0 336 111v-80q-131 -96 -332 -96q-169 0 -283.5 79.5
t-156.5 221.5q-44 -136 -160 -218.5t-264 -82.5q-214 0 -341.5 134.5t-127.5 338.5zM170 455q0 -176 107 -293t284 -117q171 0 279 119t108 291q0 171 -108.5 289t-278.5 118q-168 0 -279.5 -118.5t-111.5 -288.5zM1032 500h699q-13 161 -98.5 260.5t-239.5 99.5
q-150 0 -250 -101t-111 -259z" />
    <glyph glyph-name="Ydieresis" unicode="&#x178;" horiz-adv-x="1101" 
d="M20 1352h89q152 -231 452 -697h6l428 697h84q-90 -144 -254 -410t-223 -362v-580h-78v580zM346 1583q0 23 16.5 39t38.5 16q24 0 39 -15.5t15 -39.5q0 -25 -14.5 -40t-39.5 -15t-40 15t-15 40zM666 1583q0 23 16.5 39t38.5 16q26 0 40.5 -15.5t14.5 -39.5
q0 -25 -14.5 -40t-40.5 -15q-24 0 -39.5 15.5t-15.5 39.5z" />
    <glyph glyph-name="circumflex" unicode="&#x2c6;" horiz-adv-x="958" 
d="M170 1092q235 230 283 276h24l275 -276h-90l-201 184l-205 -184h-86z" />
    <glyph glyph-name="tilde" unicode="&#x2dc;" horiz-adv-x="940" 
d="M182 1163q25 56 66 91.5t94 35.5q48 0 134.5 -46t117.5 -46q37 0 64 24t53 74q8 -7 22 -22.5t19 -20.5q-57 -120 -154 -120q-47 0 -133 45t-121 45q-74 0 -121 -103z" />
    <glyph glyph-name="uni2000" unicode="&#x2000;" horiz-adv-x="879" 
 />
    <glyph glyph-name="uni2001" unicode="&#x2001;" horiz-adv-x="1759" 
 />
    <glyph glyph-name="uni2002" unicode="&#x2002;" horiz-adv-x="879" 
 />
    <glyph glyph-name="uni2003" unicode="&#x2003;" horiz-adv-x="1759" 
 />
    <glyph glyph-name="uni2004" unicode="&#x2004;" horiz-adv-x="586" 
 />
    <glyph glyph-name="uni2005" unicode="&#x2005;" horiz-adv-x="439" 
 />
    <glyph glyph-name="uni2006" unicode="&#x2006;" horiz-adv-x="293" 
 />
    <glyph glyph-name="uni2007" unicode="&#x2007;" horiz-adv-x="293" 
 />
    <glyph glyph-name="uni2008" unicode="&#x2008;" horiz-adv-x="219" 
 />
    <glyph glyph-name="uni2009" unicode="&#x2009;" horiz-adv-x="351" 
 />
    <glyph glyph-name="uni200A" unicode="&#x200a;" horiz-adv-x="97" 
 />
    <glyph glyph-name="uni2010" unicode="&#x2010;" horiz-adv-x="759" 
d="M125 461v76h510v-76h-510z" />
    <glyph glyph-name="uni2011" unicode="&#x2011;" horiz-adv-x="759" 
d="M125 461v76h510v-76h-510z" />
    <glyph glyph-name="figuredash" unicode="&#x2012;" horiz-adv-x="759" 
d="M125 461v76h510v-76h-510z" />
    <glyph glyph-name="endash" unicode="&#x2013;" horiz-adv-x="1095" 
d="M66 467v68h964v-68h-964z" />
    <glyph glyph-name="emdash" unicode="&#x2014;" horiz-adv-x="1691" 
d="M72 467v68h1550v-68h-1550z" />
    <glyph glyph-name="quoteleft" unicode="&#x2018;" horiz-adv-x="370" 
d="M106 1065q0 22 7 51.5t27 75.5t28.5 65.5t37.5 80.5l30 61h49l-88 -273q21 -5 35 -21.5t14 -39.5q0 -29 -21.5 -50.5t-50.5 -21.5t-48.5 20.5t-19.5 51.5z" />
    <glyph glyph-name="quoteright" unicode="&#x2019;" horiz-adv-x="370" 
d="M100 991l88 273q-21 5 -35 21.5t-14 39.5q0 29 21.5 50.5t50.5 21.5t48.5 -20.5t19.5 -51.5q0 -16 -4 -37t-13.5 -47t-18 -48t-23.5 -54.5t-23.5 -51t-25 -52.5t-21.5 -44h-50z" />
    <glyph glyph-name="quotesinglbase" unicode="&#x201a;" horiz-adv-x="407" 
d="M115 -272q48 158 84 268q-20 3 -33.5 20.5t-13.5 40.5q0 29 20 49.5t49 20.5q30 0 50 -21.5t20 -50.5q0 -76 -129 -329z" />
    <glyph glyph-name="quotedblleft" unicode="&#x201c;" horiz-adv-x="583" 
d="M111 1063q0 16 4 37t13.5 47t18 48t23.5 54.5t23.5 51t25 52.5t21.5 44h49l-88 -273q21 -5 35 -21.5t14 -39.5q0 -29 -21.5 -50.5t-50.5 -21.5t-48 20.5t-19 51.5zM311 1063q0 16 4 37t13.5 47t18 48t23.5 54.5t23.5 51t25 52.5t21.5 44h49l-88 -273q21 -5 35.5 -21.5
t14.5 -39.5q0 -29 -21.5 -50.5t-50.5 -21.5t-48.5 20.5t-19.5 51.5z" />
    <glyph glyph-name="quotedblright" unicode="&#x201d;" horiz-adv-x="583" 
d="M96 993l88 273q-21 5 -35 21.5t-14 39.5q0 29 21.5 50.5t50.5 21.5t48 -20.5t19 -51.5q0 -16 -4 -37t-13.5 -47t-18 -48t-23.5 -54.5t-23.5 -51t-25 -52.5t-21.5 -44h-49zM297 993l88 273q-21 5 -35 21.5t-14 39.5q0 29 21.5 50.5t50.5 21.5t48 -20.5t19 -51.5
q0 -16 -4 -37t-13.5 -47t-18 -48t-23.5 -54.5t-23.5 -51t-25 -52.5t-21.5 -44h-49z" />
    <glyph glyph-name="quotedblbase" unicode="&#x201e;" horiz-adv-x="598" 
d="M104 -272q48 158 84 268q-20 3 -33.5 20.5t-13.5 40.5q0 29 20.5 49.5t49.5 20.5q30 0 50 -21.5t20 -50.5q0 -76 -129 -329zM309 -272q48 158 84 268q-20 3 -33.5 20.5t-13.5 40.5q0 29 20.5 49.5t49.5 20.5q30 0 49.5 -21.5t19.5 -50.5q0 -76 -129 -329z" />
    <glyph glyph-name="bullet" unicode="&#x2022;" horiz-adv-x="878" 
d="M254 492q0 77 54 131.5t130 54.5q77 0 132 -55t55 -131t-55 -130.5t-132 -54.5q-76 0 -130 54t-54 131z" />
    <glyph glyph-name="ellipsis" unicode="&#x2026;" horiz-adv-x="1050" 
d="M117 53q0 30 18 49t47 19t48.5 -19.5t19.5 -48.5t-20 -47t-48 -18q-29 0 -47 18t-18 47zM461 53q0 29 19 48.5t48 19.5t48.5 -19.5t19.5 -48.5t-20 -47t-48 -18q-29 0 -48 18t-19 47zM807 53q0 29 18.5 48.5t46.5 19.5q29 0 49.5 -19.5t20.5 -48.5t-20 -47t-48 -18
q-29 0 -48 18t-19 47z" />
    <glyph glyph-name="uni202F" unicode="&#x202f;" horiz-adv-x="351" 
 />
    <glyph glyph-name="guilsinglleft" unicode="&#x2039;" horiz-adv-x="546" 
d="M92 395v15q257 320 285 354h82l-287 -358l293 -365h-86q-28 35 -130.5 160t-156.5 194z" />
    <glyph glyph-name="guilsinglright" unicode="&#x203a;" horiz-adv-x="546" 
d="M92 41q222 280 291 365l-287 358h82q48 -58 143.5 -177t143.5 -177v-15l-287 -354h-86z" />
    <glyph glyph-name="uni205F" unicode="&#x205f;" horiz-adv-x="439" 
 />
    <glyph glyph-name="Euro" unicode="&#x20ac;" 
d="M78 569v52h823v-52h-657q9 -246 148.5 -382t355.5 -136q62 0 139.5 17.5t144.5 48.5v-68q-128 -61 -289 -61q-162 0 -287 64t-202 196.5t-86 320.5h-90zM78 756v51h96q25 255 176 406t391 151q135 0 254 -45v-68q-130 49 -252 49q-208 0 -338 -135t-151 -358h647v-51
h-823z" />
    <glyph glyph-name="trademark" unicode="&#x2122;" horiz-adv-x="1536" 
d="M66 1323v53h536v-53h-235v-688h-64v688h-237zM688 635v741h19q60 -85 174 -241.5t143 -196.5h6l318 438h18v-741h-61v586h-5l-268 -371h-14q-122 175 -262 367h-4v-582h-64z" />
    <glyph glyph-name="uni25FC" unicode="&#x25fc;" horiz-adv-x="911" 
d="M0 0v911h911v-911h-911z" />
    </font>
</defs>
</svg>
